<?xml version="1.0" encoding="UTF-8" standalone="no"?> <svg width="64" height="64" viewBox="0 0 64 64" fill="none" xmlns="http://www.w3.org/2000/svg">
<path d="M59 11C60.1046 11 61 10.1046 61 9C61 7.89543 60.1046 7 59 7C57.8954 7 57 7.89543 57 9C57 10.1046 57.8954 11 59 11Z" fill="#BDDBFF"/>
<path d="M53 16C54.1046 16 55 15.1046 55 14C55 12.8954 54.1046 12 53 12C51.8954 12 51 12.8954 51 14C51 15.1046 51.8954 16 53 16Z" fill="#BDDBFF"/>
<path d="M44 6L48 13H16L20 6H44Z" fill="#BDDBFF"/>
<path d="M46 21.46V35C46 35.2652 45.8946 35.5196 45.7071 35.7071C45.5196 35.8946 45.2652 36 45 36H28V26H22V36H19C18.7348 36 18.4804 35.8946 18.2929 35.7071C18.1054 35.5196 18 35.2652 18 35V21.46C18.6075 21.8125 19.2973 21.9986 19.9996 21.9996C20.702 22.0005 21.3923 21.8163 22.0007 21.4654C22.6092 21.1145 23.1144 20.6094 23.4654 20.001C23.8164 19.3926 24.0008 18.7024 24 18C24 19.0609 24.4214 20.0783 25.1716 20.8284C25.9217 21.5786 26.9391 22 28 22C29.0609 22 30.0783 21.5786 30.8284 20.8284C31.5786 20.0783 32 19.0609 32 18C32 19.0609 32.4214 20.0783 33.1716 20.8284C33.9217 21.5786 34.9391 22 36 22C37.0609 22 38.0783 21.5786 38.8284 20.8284C39.5786 20.0783 40 19.0609 40 18C39.9989 18.7025 40.1831 19.3929 40.534 20.0015C40.885 20.61 41.3902 21.1153 41.9988 21.4662C42.6073 21.8172 43.2977 22.0014 44.0002 22.0003C44.7027 21.9992 45.3925 21.8128 46 21.46V21.46ZM42 32V26H32V32H42Z" fill="#BDDBFF"/>
<path d="M11 16C12.1046 16 13 15.1046 13 14C13 12.8954 12.1046 12 11 12C9.89543 12 9 12.8954 9 14C9 15.1046 9.89543 16 11 16Z" fill="#BDDBFF"/>
<path d="M11 57V58H3V44H11V45V57Z" fill="#BDDBFF"/>
<path d="M5 11C6.10457 11 7 10.1046 7 9C7 7.89543 6.10457 7 5 7C3.89543 7 3 7.89543 3 9C3 10.1046 3.89543 11 5 11Z" fill="#BDDBFF"/>
<path d="M55.15 40.434L46.634 45.35C46.3175 44.651 45.8066 44.0578 45.1623 43.6411C44.5179 43.2244 43.7673 43.0019 43 43H31.162L27.471 41.77C25.9418 41.2596 24.3402 40.9995 22.728 41H21.878C19.1591 41 16.4914 41.739 14.16 43.138L12.723 44H12C12 43.7348 11.8946 43.4804 11.7071 43.2929C11.5196 43.1053 11.2652 43 11 43H3C2.73478 43 2.48043 43.1053 2.29289 43.2929C2.10536 43.4804 2 43.7348 2 44V58C2 58.2652 2.10536 58.5195 2.29289 58.7071C2.48043 58.8946 2.73478 59 3 59H11C11.2652 59 11.5196 58.8946 11.7071 58.7071C11.8946 58.5195 12 58.2652 12 58H19.531C19.8044 58 20.0775 58.016 20.349 58.048L32.27 59.448C32.8439 59.5153 33.4212 59.5486 33.999 59.548C36.6391 59.5478 39.233 58.8555 41.522 57.54L59.15 47.366C59.761 47.0177 60.2683 46.5131 60.6197 45.904C60.9712 45.2949 61.1542 44.6032 61.15 43.9C61.1503 43.1977 60.9658 42.5076 60.6148 41.8993C60.2639 41.291 59.759 40.7857 59.1508 40.4344C58.5427 40.0831 57.8528 39.8982 57.1505 39.8981C56.4482 39.898 55.7582 40.0828 55.15 40.434ZM10 57H4V45H10V57ZM58.15 45.634L40.522 55.812C38.0939 57.2074 35.2819 57.7864 32.5 57.464L20.58 56.064C20.2319 56.0223 19.8816 56.0009 19.531 56H12V46H13C13.1815 45.9999 13.3595 45.9505 13.515 45.857L15.189 44.857C17.2091 43.6431 19.5212 43.0012 21.878 43H22.728C24.1253 42.9999 25.5134 43.2252 26.839 43.667L30.684 44.949C30.7859 44.9828 30.8926 45 31 45H43C43.5304 45 44.0391 45.2107 44.4142 45.5858C44.7893 45.9608 45 46.4695 45 47C45 47.5304 44.7893 48.0391 44.4142 48.4142C44.0391 48.7893 43.5304 49 43 49H28V51H43C43.9757 50.9969 44.9165 50.6366 45.6446 49.9871C46.3728 49.3376 46.8379 48.444 46.952 47.475L56.145 42.169C56.449 41.9935 56.7938 41.9011 57.1447 41.901C57.4957 41.901 57.8405 41.9933 58.1445 42.1687C58.4486 42.3441 58.701 42.5964 58.8767 42.9003C59.0523 43.2042 59.1448 43.549 59.145 43.9C59.1478 44.2513 59.0571 44.597 58.8823 44.9017C58.7074 45.2064 58.4547 45.4591 58.15 45.634Z" fill="#3D9AE2"/>
<path d="M59 12C59.5933 12 60.1734 11.8241 60.6667 11.4944C61.1601 11.1648 61.5446 10.6962 61.7716 10.1481C61.9987 9.59987 62.0581 8.99667 61.9424 8.41473C61.8266 7.83279 61.5409 7.29824 61.1213 6.87868C60.7018 6.45912 60.1672 6.1734 59.5853 6.05765C59.0033 5.94189 58.4001 6.0013 57.852 6.22836C57.3038 6.45543 56.8352 6.83994 56.5056 7.33329C56.1759 7.82664 56 8.40666 56 9C56 9.79565 56.3161 10.5587 56.8787 11.1213C57.4413 11.6839 58.2044 12 59 12V12ZM59 8C59.1978 8 59.3911 8.05865 59.5556 8.16853C59.72 8.27841 59.8482 8.43459 59.9239 8.61732C59.9996 8.80004 60.0194 9.00111 59.9808 9.19509C59.9422 9.38907 59.847 9.56726 59.7071 9.70711C59.5673 9.84696 59.3891 9.9422 59.1951 9.98079C59.0011 10.0194 58.8 9.99957 58.6173 9.92388C58.4346 9.84819 58.2784 9.72002 58.1685 9.55557C58.0586 9.39112 58 9.19778 58 9C58 8.73478 58.1054 8.48043 58.2929 8.29289C58.4804 8.10536 58.7348 8 59 8Z" fill="#3D9AE2"/>
<path d="M60 14H58V20H60V14Z" fill="#3D9AE2"/>
<path d="M60 22H58V24H60V22Z" fill="#3D9AE2"/>
<path d="M53 17C53.5933 17 54.1734 16.8241 54.6667 16.4944C55.1601 16.1648 55.5446 15.6962 55.7716 15.1481C55.9987 14.5999 56.0581 13.9967 55.9424 13.4147C55.8266 12.8328 55.5409 12.2982 55.1213 11.8787C54.7018 11.4591 54.1672 11.1734 53.5853 11.0576C53.0033 10.9419 52.4001 11.0013 51.852 11.2284C51.3038 11.4554 50.8352 11.8399 50.5056 12.3333C50.1759 12.8266 50 13.4067 50 14C50 14.7957 50.3161 15.5587 50.8787 16.1213C51.4413 16.6839 52.2044 17 53 17V17ZM53 13C53.1978 13 53.3911 13.0587 53.5556 13.1685C53.72 13.2784 53.8482 13.4346 53.9239 13.6173C53.9996 13.8 54.0194 14.0011 53.9808 14.1951C53.9422 14.3891 53.847 14.5673 53.7071 14.7071C53.5673 14.847 53.3891 14.9422 53.1951 14.9808C53.0011 15.0194 52.8 14.9996 52.6173 14.9239C52.4346 14.8482 52.2784 14.72 52.1685 14.5556C52.0586 14.3911 52 14.1978 52 14C52 13.7348 52.1054 13.4804 52.2929 13.2929C52.4804 13.1054 52.7348 13 53 13Z" fill="#3D9AE2"/>
<path d="M54 19H52V25H54V19Z" fill="#3D9AE2"/>
<path d="M54 27H52V29H54V27Z" fill="#3D9AE2"/>
<path d="M5 12C5.59334 12 6.17336 11.8241 6.66671 11.4944C7.16006 11.1648 7.54458 10.6962 7.77164 10.1481C7.9987 9.59987 8.05811 8.99667 7.94236 8.41473C7.8266 7.83279 7.54088 7.29824 7.12132 6.87868C6.70176 6.45912 6.16721 6.1734 5.58527 6.05765C5.00333 5.94189 4.40013 6.0013 3.85195 6.22836C3.30377 6.45543 2.83524 6.83994 2.50559 7.33329C2.17595 7.82664 2 8.40666 2 9C2 9.79565 2.31607 10.5587 2.87868 11.1213C3.44129 11.6839 4.20435 12 5 12ZM5 8C5.19778 8 5.39112 8.05865 5.55557 8.16853C5.72002 8.27841 5.84819 8.43459 5.92388 8.61732C5.99957 8.80004 6.01937 9.00111 5.98079 9.19509C5.9422 9.38907 5.84696 9.56726 5.70711 9.70711C5.56725 9.84696 5.38907 9.9422 5.19509 9.98079C5.00111 10.0194 4.80004 9.99957 4.61732 9.92388C4.43459 9.84819 4.27841 9.72002 4.16853 9.55557C4.05865 9.39112 4 9.19778 4 9C4 8.73478 4.10536 8.48043 4.29289 8.29289C4.48043 8.10536 4.73478 8 5 8Z" fill="#3D9AE2"/>
<path d="M6 14H4V20H6V14Z" fill="#3D9AE2"/>
<path d="M6 22H4V24H6V22Z" fill="#3D9AE2"/>
<path d="M11 17C11.5933 17 12.1734 16.8241 12.6667 16.4944C13.1601 16.1648 13.5446 15.6962 13.7716 15.1481C13.9987 14.5999 14.0581 13.9967 13.9424 13.4147C13.8266 12.8328 13.5409 12.2982 13.1213 11.8787C12.7018 11.4591 12.1672 11.1734 11.5853 11.0576C11.0033 10.9419 10.4001 11.0013 9.85195 11.2284C9.30377 11.4554 8.83524 11.8399 8.50559 12.3333C8.17595 12.8266 8 13.4067 8 14C8 14.7957 8.31607 15.5587 8.87868 16.1213C9.44129 16.6839 10.2044 17 11 17V17ZM11 13C11.1978 13 11.3911 13.0587 11.5556 13.1685C11.72 13.2784 11.8482 13.4346 11.9239 13.6173C11.9996 13.8 12.0194 14.0011 11.9808 14.1951C11.9422 14.3891 11.847 14.5673 11.7071 14.7071C11.5673 14.847 11.3891 14.9422 11.1951 14.9808C11.0011 15.0194 10.8 14.9996 10.6173 14.9239C10.4346 14.8482 10.2784 14.72 10.1685 14.5556C10.0586 14.3911 10 14.1978 10 14C10 13.7348 10.1054 13.4804 10.2929 13.2929C10.4804 13.1054 10.7348 13 11 13V13Z" fill="#3D9AE2"/>
<path d="M12 19H10V25H12V19Z" fill="#3D9AE2"/>
<path d="M12 27H10V29H12V27Z" fill="#3D9AE2"/>
<path d="M17 21.974V35C17 35.5304 17.2107 36.0391 17.5858 36.4142C17.9609 36.7893 18.4696 37 19 37H45C45.5304 37 46.0391 36.7893 46.4142 36.4142C46.7893 36.0391 47 35.5304 47 35V21.974C47.6188 21.5121 48.1216 20.9126 48.4688 20.2229C48.8159 19.5332 48.9978 18.7721 49 18V13C49.0009 12.8246 48.9554 12.6521 48.868 12.5L44.868 5.5C44.7801 5.34769 44.6535 5.22127 44.5011 5.13348C44.3487 5.0457 44.1759 4.99965 44 5H20C19.8241 4.99965 19.6513 5.0457 19.4989 5.13348C19.3465 5.22127 19.2199 5.34769 19.132 5.5L15.132 12.5C15.0446 12.6521 14.9991 12.8246 15 13V18C15.0022 18.7721 15.1841 19.5332 15.5312 20.2229C15.8784 20.9126 16.3812 21.5121 17 21.974V21.974ZM23 35V27H27V35H23ZM45 35H29V26C29 25.7348 28.8946 25.4804 28.7071 25.2929C28.5196 25.1054 28.2652 25 28 25H22C21.7348 25 21.4804 25.1054 21.2929 25.2929C21.1054 25.4804 21 25.7348 21 26V35H19V22.9C19.9307 23.0907 20.8967 23.0103 21.783 22.6681C22.6693 22.326 23.4388 21.7366 24 20.97C24.4599 21.5994 25.0618 22.1114 25.7569 22.4644C26.4519 22.8174 27.2205 23.0013 28 23.0013C28.7795 23.0013 29.5481 22.8174 30.2431 22.4644C30.9382 22.1114 31.5401 21.5994 32 20.97C32.4599 21.5994 33.0618 22.1114 33.7569 22.4644C34.4519 22.8174 35.2205 23.0013 36 23.0013C36.7795 23.0013 37.5481 22.8174 38.2431 22.4644C38.9382 22.1114 39.5401 21.5994 40 20.97C40.5612 21.7366 41.3307 22.326 42.217 22.6681C43.1033 23.0103 44.0693 23.0907 45 22.9V35ZM44 21C43.2043 21 42.4413 20.6839 41.8787 20.1213C41.3161 19.5587 41 18.7957 41 18H39C39 18.7957 38.6839 19.5587 38.1213 20.1213C37.5587 20.6839 36.7956 21 36 21C35.2043 21 34.4413 20.6839 33.8787 20.1213C33.3161 19.5587 33 18.7957 33 18H31C31 18.7957 30.6839 19.5587 30.1213 20.1213C29.5587 20.6839 28.7956 21 28 21C27.2043 21 26.4413 20.6839 25.8787 20.1213C25.3161 19.5587 25 18.7957 25 18H23C23 18.7957 22.6839 19.5587 22.1213 20.1213C21.5587 20.6839 20.7956 21 20 21C19.2043 21 18.4413 20.6839 17.8787 20.1213C17.3161 19.5587 17 18.7957 17 18V14H47V18C47 18.7957 46.6839 19.5587 46.1213 20.1213C45.5587 20.6839 44.7956 21 44 21ZM20.58 7H43.42L46.277 12H17.723L20.58 7Z" fill="#3D9AE2"/>
<path d="M42 25H32C31.7348 25 31.4804 25.1054 31.2929 25.2929C31.1054 25.4804 31 25.7348 31 26V32C31 32.2652 31.1054 32.5196 31.2929 32.7071C31.4804 32.8946 31.7348 33 32 33H42C42.2652 33 42.5196 32.8946 42.7071 32.7071C42.8946 32.5196 43 32.2652 43 32V26C43 25.7348 42.8946 25.4804 42.7071 25.2929C42.5196 25.1054 42.2652 25 42 25ZM41 31H33V27H41V31Z" fill="#3D9AE2"/>
</svg>
