<?xml version="1.0" encoding="UTF-8" standalone="no"?> <svg width="64" height="64" viewBox="0 0 64 64" fill="none" xmlns="http://www.w3.org/2000/svg">
<path d="M47.12 55.88C47.539 56.2995 47.8243 56.8339 47.9399 57.4155C48.0554 57.9971 47.996 58.5998 47.7691 59.1477C47.5423 59.6955 47.1582 60.1639 46.6653 60.4936C46.1725 60.8232 45.593 60.9995 45 61H19C18.2044 61 17.4413 60.6839 16.8787 60.1213C16.3161 59.5587 16 58.7956 16 58C16 57.2044 16.3161 56.4413 16.8787 55.8787C17.4413 55.3161 18.2044 55 19 55H45C45.3939 55 45.7839 55.0777 46.1477 55.2287C46.5115 55.3797 46.8419 55.601 47.12 55.88Z" fill="#BDDBFF"/>
<path d="M43.31 13.31C43.5891 13.5884 43.8106 13.919 43.9618 14.283C44.1131 14.647 44.1912 15.0373 44.1917 15.4315C44.1921 15.8256 44.115 16.2161 43.9645 16.5804C43.8141 16.9448 43.5934 17.2759 43.315 17.555C43.0366 17.8341 42.706 18.0555 42.342 18.2068C41.978 18.3581 41.5877 18.4362 41.1935 18.4367C40.7994 18.4371 40.4089 18.3599 40.0446 18.2095C39.6802 18.0591 39.3491 17.8384 39.07 17.56L35 13.49V46C35 46.7956 34.6839 47.5587 34.1213 48.1213C33.5587 48.6839 32.7957 49 32 49C31.2044 49 30.4413 48.6839 29.8787 48.1213C29.3161 47.5587 29 46.7956 29 46V13.49L24.93 17.56C24.3664 18.1223 23.6026 18.4376 22.8065 18.4367C22.0104 18.4357 21.2473 18.1186 20.685 17.555C20.1227 16.9914 19.8074 16.2275 19.8083 15.4315C19.8093 14.6354 20.1264 13.8723 20.69 13.31L30.59 3.40999C30.775 3.22458 30.9948 3.07749 31.2368 2.97713C31.4787 2.87676 31.7381 2.8251 32 2.8251C32.2619 2.8251 32.5213 2.87676 32.7633 2.97713C33.0052 3.07749 33.225 3.22458 33.41 3.40999L43.31 13.31Z" fill="#BDDBFF"/>
<path d="M44.02 12.61L34.12 2.71C33.5575 2.1482 32.795 1.83264 32 1.83264C31.205 1.83264 30.4425 2.1482 29.88 2.71L19.98 12.61C19.232 13.3599 18.8119 14.3758 18.8119 15.435C18.8119 16.4942 19.232 17.5101 19.98 18.26C20.7426 18.9875 21.7561 19.3933 22.81 19.3933C23.8639 19.3933 24.8774 18.9875 25.64 18.26L28 15.9V46C28 47.0609 28.4214 48.0783 29.1716 48.8284C29.9217 49.5786 30.9391 50 32 50C33.0609 50 34.0783 49.5786 34.8284 48.8284C35.5786 48.0783 36 47.0609 36 46V15.9L38.36 18.26C39.1226 18.9875 40.1361 19.3933 41.19 19.3933C42.2439 19.3933 43.2574 18.9875 44.02 18.26C44.7681 17.5101 45.1882 16.4942 45.1882 15.435C45.1882 14.3758 44.7681 13.3599 44.02 12.61V12.61ZM42.61 16.85C42.2274 17.2113 41.7212 17.4125 41.195 17.4125C40.6688 17.4125 40.1626 17.2113 39.78 16.85L35.71 12.78C35.5701 12.639 35.3914 12.5428 35.1967 12.5037C35.0019 12.4647 34.8 12.4845 34.6165 12.5606C34.4331 12.6368 34.2765 12.7659 34.1667 12.9314C34.0569 13.0969 33.9988 13.2914 34 13.49V46C34 46.5304 33.7893 47.0391 33.4142 47.4142C33.0391 47.7893 32.5304 48 32 48C31.4696 48 30.9609 47.7893 30.5858 47.4142C30.2107 47.0391 30 46.5304 30 46V13.49C30.001 13.2909 29.9425 13.096 29.8321 12.9303C29.7216 12.7646 29.5642 12.6357 29.38 12.56C29.2592 12.5118 29.13 12.488 29 12.49C28.7343 12.4892 28.4792 12.5935 28.29 12.78L24.22 16.85C23.8374 17.2113 23.3312 17.4125 22.805 17.4125C22.2788 17.4125 21.7726 17.2113 21.39 16.85C21.204 16.6643 21.0565 16.4437 20.9559 16.2009C20.8552 15.9581 20.8034 15.6978 20.8034 15.435C20.8034 15.1722 20.8552 14.9119 20.9559 14.6691C21.0565 14.4263 21.204 14.2057 21.39 14.02L31.29 4.12C31.4788 3.93265 31.734 3.82752 32 3.82752C32.266 3.82752 32.5212 3.93265 32.71 4.12L42.61 14.02C42.9817 14.3972 43.19 14.9055 43.19 15.435C43.19 15.9645 42.9817 16.4728 42.61 16.85V16.85Z" fill="#3D9AE2"/>
<path d="M45 54H19C17.9391 54 16.9217 54.4214 16.1716 55.1716C15.4214 55.9217 15 56.9391 15 58C15 59.0609 15.4214 60.0783 16.1716 60.8284C16.9217 61.5786 17.9391 62 19 62H45C46.0609 62 47.0783 61.5786 47.8284 60.8284C48.5786 60.0783 49 59.0609 49 58C49 56.9391 48.5786 55.9217 47.8284 55.1716C47.0783 54.4214 46.0609 54 45 54ZM45 60H19C18.4696 60 17.9609 59.7893 17.5858 59.4142C17.2107 59.0391 17 58.5304 17 58C17 57.4696 17.2107 56.9609 17.5858 56.5858C17.9609 56.2107 18.4696 56 19 56H45C45.5304 56 46.0391 56.2107 46.4142 56.5858C46.7893 56.9609 47 57.4696 47 58C47 58.5304 46.7893 59.0391 46.4142 59.4142C46.0391 59.7893 45.5304 60 45 60Z" fill="#3D9AE2"/>
</svg>
