<?xml version="1.0" encoding="UTF-8" standalone="no"?> <svg width="512" height="512" viewBox="0 0 512 512" fill="none" xmlns="http://www.w3.org/2000/svg">
<path d="M405.334 64H106.667C88.9939 64 74.667 78.3269 74.667 96V448C74.667 465.673 88.9939 480 106.667 480H405.334C423.007 480 437.334 465.673 437.334 448V96C437.334 78.3269 423.007 64 405.334 64Z" fill="#EAEFF0"/>
<path d="M170.667 170.667H149.334C143.443 170.667 138.667 175.443 138.667 181.334V202.667C138.667 208.558 143.443 213.334 149.334 213.334H170.667C176.558 213.334 181.334 208.558 181.334 202.667V181.334C181.334 175.443 176.558 170.667 170.667 170.667Z" fill="#8FA5A5"/>
<path d="M170.667 266.667H149.334C143.443 266.667 138.667 271.443 138.667 277.334V298.667C138.667 304.558 143.443 309.334 149.334 309.334H170.667C176.558 309.334 181.334 304.558 181.334 298.667V277.334C181.334 271.443 176.558 266.667 170.667 266.667Z" fill="#8FA5A5"/>
<path d="M170.667 362.667H149.334C143.443 362.667 138.667 367.443 138.667 373.334V394.667C138.667 400.558 143.443 405.334 149.334 405.334H170.667C176.558 405.334 181.334 400.558 181.334 394.667V373.334C181.334 367.443 176.558 362.667 170.667 362.667Z" fill="#8FA5A5"/>
<path d="M341.333 32H170.667C164.776 32 160 36.7758 160 42.667V85.333C160 91.2242 164.776 96 170.667 96H341.333C347.224 96 352 91.2242 352 85.333V42.667C352 36.7758 347.224 32 341.333 32Z" fill="#00CF66"/>
<path d="M405.333 53.333H362.667V42.667C362.661 37.011 360.411 31.5884 356.412 27.589C352.413 23.5896 346.99 21.3401 341.334 21.334H170.667C165.011 21.3401 159.588 23.5896 155.589 27.589C151.59 31.5884 149.34 37.011 149.334 42.667V53.333H106.667C95.355 53.346 84.51 57.8454 76.5112 65.8442C68.5124 73.843 64.013 84.688 64 96V448C64.013 459.312 68.5124 470.157 76.5112 478.156C84.51 486.155 95.355 490.654 106.667 490.667H405.333C416.645 490.654 427.49 486.155 435.489 478.156C443.488 470.157 447.987 459.312 448 448V96C447.987 84.688 443.488 73.843 435.489 65.8442C427.49 57.8454 416.645 53.346 405.333 53.333V53.333ZM170.667 42.667H341.333L341.349 85.334H170.667V42.667ZM426.667 448C426.661 453.656 424.412 459.079 420.413 463.079C416.413 467.078 410.99 469.327 405.334 469.333H106.667C101.011 469.328 95.5875 467.078 91.5878 463.079C87.5881 459.079 85.3386 453.656 85.333 448V96C85.3391 90.344 87.5886 84.9214 91.588 80.922C95.5874 76.9226 101.01 74.6731 106.666 74.667H149.333V85.333C149.339 90.989 151.589 96.4116 155.588 100.411C159.587 104.41 165.01 106.66 170.666 106.666H341.333C346.989 106.66 352.412 104.41 356.411 100.411C360.41 96.4116 362.66 90.989 362.666 85.333V74.667H405.333C410.989 74.6728 416.412 76.9222 420.412 80.9216C424.411 84.9211 426.661 90.3438 426.667 96V448Z" fill="black"/>
<path d="M373.333 181.333H224C221.189 181.36 218.503 182.496 216.524 184.493C214.546 186.491 213.437 189.188 213.437 192C213.437 194.811 214.546 197.508 216.524 199.506C218.503 201.503 221.189 202.639 224 202.666H373.333C374.743 202.68 376.141 202.414 377.447 201.884C378.753 201.354 379.941 200.57 380.943 199.579C381.944 198.587 382.739 197.406 383.282 196.105C383.824 194.805 384.104 193.409 384.104 192C384.104 190.59 383.824 189.194 383.282 187.894C382.739 186.593 381.944 185.412 380.943 184.42C379.941 183.429 378.753 182.645 377.447 182.115C376.141 181.585 374.743 181.319 373.333 181.333V181.333Z" fill="black"/>
<path d="M170.667 160H149.333C143.677 160.006 138.254 162.256 134.255 166.255C130.256 170.254 128.006 175.677 128 181.333V202.666C128.006 208.322 130.255 213.745 134.255 217.745C138.254 221.744 143.677 223.994 149.333 224H170.666C176.322 223.994 181.745 221.745 185.745 217.745C189.744 213.746 191.994 208.323 192 202.667V181.333C191.994 175.677 189.744 170.254 185.745 166.255C181.746 162.256 176.323 160.006 170.667 160V160ZM149.334 202.667V181.333H170.667L170.683 202.666L149.334 202.667Z" fill="black"/>
<path d="M373.333 277.333H224C221.189 277.36 218.503 278.496 216.524 280.493C214.546 282.491 213.437 285.188 213.437 288C213.437 290.811 214.546 293.508 216.524 295.506C218.503 297.503 221.189 298.639 224 298.666H373.333C374.743 298.68 376.141 298.414 377.447 297.884C378.753 297.354 379.941 296.57 380.943 295.579C381.944 294.587 382.739 293.406 383.282 292.105C383.824 290.805 384.104 289.409 384.104 288C384.104 286.59 383.824 285.194 383.282 283.894C382.739 282.593 381.944 281.412 380.943 280.42C379.941 279.429 378.753 278.645 377.447 278.115C376.141 277.585 374.743 277.319 373.333 277.333V277.333Z" fill="black"/>
<path d="M170.667 256H149.333C143.677 256.006 138.254 258.255 134.254 262.254C130.255 266.254 128.006 271.677 128 277.333V298.666C128.005 304.322 130.255 309.745 134.254 313.745C138.254 317.745 143.677 319.994 149.333 320H170.666C176.322 319.995 181.745 317.745 185.745 313.746C189.745 309.746 191.994 304.323 192 298.667V277.333C191.994 271.677 189.745 266.254 185.746 262.254C181.746 258.255 176.323 256.006 170.667 256V256ZM149.334 298.667V277.333H170.667L170.683 298.666L149.334 298.667Z" fill="black"/>
<path d="M373.333 373.333H224C221.189 373.36 218.503 374.496 216.524 376.493C214.546 378.491 213.437 381.188 213.437 384C213.437 386.811 214.546 389.508 216.524 391.506C218.503 393.503 221.189 394.639 224 394.666H373.333C374.743 394.68 376.141 394.414 377.447 393.884C378.753 393.354 379.941 392.57 380.943 391.579C381.944 390.587 382.739 389.406 383.282 388.105C383.824 386.805 384.104 385.409 384.104 384C384.104 382.59 383.824 381.194 383.282 379.894C382.739 378.593 381.944 377.412 380.943 376.42C379.941 375.429 378.753 374.645 377.447 374.115C376.141 373.585 374.743 373.319 373.333 373.333V373.333Z" fill="black"/>
<path d="M170.667 352H149.333C143.677 352.006 138.254 354.255 134.254 358.254C130.255 362.254 128.006 367.677 128 373.333V394.666C128.005 400.322 130.255 405.745 134.254 409.745C138.254 413.745 143.677 415.994 149.333 416H170.666C176.322 415.995 181.745 413.745 185.745 409.746C189.745 405.746 191.994 400.323 192 394.667V373.333C191.994 367.677 189.745 362.254 185.746 358.254C181.746 354.255 176.323 352.006 170.667 352V352ZM149.334 394.667V373.333H170.667L170.683 394.666L149.334 394.667Z" fill="black"/>
</svg>
