<?xml version="1.0" encoding="UTF-8" standalone="no"?> <svg width="512" height="512" viewBox="0 0 512 512" fill="none" xmlns="http://www.w3.org/2000/svg">
<g clip-path="url(#clip0_50:42)">
<path d="M351.999 10.667H160C136.436 10.667 117.333 29.7697 117.333 53.334V458.667C117.333 482.231 136.436 501.334 160 501.334H351.999C375.563 501.334 394.666 482.231 394.666 458.667V53.334C394.666 29.7697 375.563 10.667 351.999 10.667Z" fill="#EAEFF0"/>
<path d="M352 10.667H160C148.684 10.667 137.832 15.1623 129.83 23.1639C121.828 31.1655 117.333 42.018 117.333 53.334V64H394.667V53.333C394.667 42.0172 390.171 31.1649 382.17 23.1635C374.168 15.1621 363.316 10.667 352 10.667V10.667Z" fill="#7B8C8C"/>
<path d="M160 501.333H352C363.316 501.333 374.169 496.838 382.17 488.836C390.172 480.835 394.667 469.982 394.667 458.666V437.333H117.333V458.666C117.333 469.982 121.828 480.835 129.83 488.836C137.832 496.838 148.684 501.333 160 501.333V501.333Z" fill="#7B8C8C"/>
<path d="M426.667 181.333H234.666C222.884 181.333 213.333 190.884 213.333 202.666V320C213.333 331.782 222.884 341.333 234.666 341.333H426.667C438.449 341.333 448 331.782 448 320V202.666C448 190.884 438.449 181.333 426.667 181.333Z" fill="#D9E1E2"/>
<path d="M426.667 181.333H234.667C229.009 181.333 223.583 183.581 219.582 187.581C215.582 191.582 213.334 197.008 213.334 202.666V224H448V202.667C448 199.865 447.448 197.091 446.376 194.503C445.304 191.915 443.733 189.563 441.752 187.582C439.771 185.601 437.419 184.029 434.831 182.957C432.243 181.885 429.469 181.333 426.667 181.333Z" fill="#00CF66"/>
<path d="M256 480C261.891 480 266.667 475.224 266.667 469.333C266.667 463.442 261.891 458.666 256 458.666C250.109 458.666 245.333 463.442 245.333 469.333C245.333 475.224 250.109 480 256 480Z" fill="black"/>
<path d="M426.667 170.667H405.333V53.333C405.317 39.1932 399.693 25.6371 389.694 15.6387C379.696 5.64033 366.14 0.0161449 352 0L160 0C145.86 0.0161449 132.304 5.64033 122.306 15.6387C112.307 25.6371 106.683 39.1932 106.667 53.333V458.667C106.685 472.806 112.309 486.362 122.307 496.36C132.305 506.358 145.861 511.982 160 512H352C366.139 511.982 379.694 506.358 389.693 496.36C399.691 486.362 405.315 472.806 405.333 458.667V352H426.666C435.15 351.991 443.284 348.616 449.283 342.617C455.282 336.618 458.657 328.484 458.666 320V202.667C458.657 194.183 455.282 186.049 449.284 180.05C443.285 174.051 435.151 170.677 426.667 170.667ZM426.667 192C429.495 192.003 432.206 193.128 434.206 195.128C436.206 197.128 437.331 199.839 437.334 202.667V213.334H224V202.667C224.003 199.839 225.128 197.128 227.128 195.128C229.128 193.128 231.839 192.003 234.667 192H426.667ZM160 21.333H352C360.484 21.3423 368.618 24.7167 374.617 30.7158C380.616 36.715 383.991 44.8489 384 53.333H128C128.009 44.8489 131.384 36.715 137.383 30.7158C143.382 24.7167 151.516 21.3423 160 21.333V21.333ZM384 458.667C383.991 467.151 380.616 475.285 374.617 481.284C368.618 487.283 360.484 490.658 352 490.667H160C151.516 490.658 143.382 487.283 137.383 481.284C131.384 475.285 128.009 467.151 128 458.667V448H384V458.667ZM384 426.667H128V74.667H384V170.667H234.667C226.183 170.676 218.049 174.051 212.05 180.05C206.051 186.049 202.676 194.183 202.667 202.667V320C202.676 328.484 206.051 336.618 212.05 342.617C218.049 348.616 226.183 351.991 234.667 352H384V426.667ZM437.333 320C437.329 322.828 436.204 325.539 434.205 327.539C432.205 329.538 429.494 330.663 426.666 330.667H234.666C231.838 330.663 229.127 329.538 227.128 327.538C225.129 325.539 224.004 322.828 224 320V234.667H437.333V320Z" fill="black"/>
<path d="M256 309.333H288C289.409 309.347 290.808 309.081 292.114 308.551C293.42 308.021 294.608 307.237 295.609 306.246C296.611 305.254 297.406 304.073 297.948 302.772C298.491 301.472 298.77 300.076 298.77 298.667C298.77 297.257 298.491 295.861 297.948 294.561C297.406 293.26 296.611 292.079 295.609 291.087C294.608 290.096 293.42 289.312 292.114 288.782C290.808 288.252 289.409 287.986 288 288H256C254.591 287.986 253.192 288.252 251.886 288.782C250.58 289.312 249.392 290.096 248.391 291.087C247.389 292.079 246.594 293.26 246.052 294.561C245.509 295.861 245.23 297.257 245.23 298.667C245.23 300.076 245.509 301.472 246.052 302.772C246.594 304.073 247.389 305.254 248.391 306.246C249.392 307.237 250.58 308.021 251.886 308.551C253.192 309.081 254.591 309.347 256 309.333V309.333Z" fill="black"/>
</g>
<defs>
<clipPath id="clip0_50:42">
<rect width="512" height="512" fill="white"/>
</clipPath>
</defs>
</svg>
