<?xml version="1.0" encoding="UTF-8" standalone="no"?> <svg width="512" height="512" viewBox="0 0 512 512" fill="none" xmlns="http://www.w3.org/2000/svg">
<path d="M351.999 10.667H160C136.436 10.667 117.333 29.7697 117.333 53.334V458.667C117.333 482.231 136.436 501.334 160 501.334H351.999C375.563 501.334 394.666 482.231 394.666 458.667V53.334C394.666 29.7697 375.563 10.667 351.999 10.667Z" fill="#EAEFF0"/>
<path d="M352 10.667H160C148.684 10.667 137.832 15.1623 129.83 23.1639C121.828 31.1655 117.333 42.018 117.333 53.334V64H394.667V53.333C394.667 42.0172 390.171 31.1649 382.17 23.1635C374.168 15.1621 363.316 10.667 352 10.667V10.667Z" fill="#7B8C8C"/>
<path d="M160 501.333H352C363.316 501.333 374.169 496.838 382.17 488.836C390.172 480.835 394.667 469.982 394.667 458.666V437.333H117.333V458.666C117.333 469.982 121.828 480.835 129.83 488.836C137.832 496.838 148.684 501.333 160 501.333V501.333Z" fill="#7B8C8C"/>
<path d="M191.514 202.661L211.446 290.361C211.982 292.718 213.304 294.823 215.193 296.331C217.083 297.839 219.428 298.661 221.846 298.661H300.775C303.202 298.661 305.556 297.833 307.45 296.315C309.343 294.796 310.661 292.677 311.188 290.308L327.781 215.641C328.127 214.082 328.119 212.464 327.757 210.909C327.395 209.353 326.688 207.898 325.689 206.652C324.689 205.406 323.423 204.401 321.982 203.71C320.542 203.019 318.965 202.66 317.368 202.66L191.514 202.661Z" fill="#00CF66"/>
<path d="M352 0H160C145.86 0.0161449 132.304 5.64033 122.306 15.6387C112.307 25.6371 106.683 39.1932 106.667 53.333V458.667C106.685 472.806 112.309 486.362 122.307 496.36C132.305 506.358 145.861 511.982 160 512H352C366.139 511.982 379.694 506.358 389.693 496.36C399.691 486.362 405.315 472.806 405.333 458.667V53.333C405.317 39.1932 399.693 25.6371 389.694 15.6387C379.696 5.64033 366.14 0.0161449 352 0V0ZM128 74.667H384V426.667H128V74.667ZM160 21.334H352C360.484 21.3433 368.618 24.7177 374.617 30.7168C380.616 36.716 383.991 44.8499 384 53.334H128C128.009 44.8497 131.383 36.7155 137.382 30.7162C143.382 24.7168 151.516 21.3423 160 21.333V21.334ZM384 458.667C383.991 467.151 380.616 475.285 374.617 481.284C368.618 487.283 360.484 490.658 352 490.667H160C151.516 490.658 143.382 487.283 137.383 481.284C131.384 475.285 128.009 467.151 128 458.667V448H384V458.667Z" fill="black"/>
<path d="M256 480C261.891 480 266.667 475.224 266.667 469.333C266.667 463.442 261.891 458.666 256 458.666C250.109 458.666 245.333 463.442 245.333 469.333C245.333 475.224 250.109 480 256 480Z" fill="black"/>
<path d="M317.37 192H200.026L198.953 187.271C197.898 182.547 195.261 178.326 191.478 175.306C187.695 172.287 182.993 170.652 178.153 170.671H160C158.58 170.64 157.168 170.893 155.848 171.416C154.527 171.938 153.324 172.718 152.308 173.712C151.293 174.705 150.487 175.891 149.936 177.2C149.386 178.509 149.102 179.915 149.102 181.336C149.102 182.756 149.386 184.162 149.936 185.471C150.487 186.78 151.293 187.966 152.308 188.959C153.324 189.953 154.527 190.733 155.848 191.256C157.168 191.778 158.58 192.031 160 192H178.151L201.051 292.729C202.106 297.453 204.743 301.674 208.526 304.694C212.309 307.713 217.011 309.348 221.851 309.329H300.778C305.637 309.353 310.358 307.707 314.148 304.666C317.939 301.625 320.569 297.374 321.6 292.625L338.194 217.961C338.887 214.843 338.87 211.608 338.146 208.497C337.422 205.386 336.008 202.477 334.01 199.985C332.011 197.493 329.478 195.482 326.598 194.1C323.718 192.718 320.564 192 317.37 192V192ZM300.776 288H221.849L204.875 213.333H317.37L300.776 288Z" fill="black"/>
<path d="M213.333 341.334C219.224 341.334 224 336.558 224 330.667C224 324.776 219.224 320 213.333 320C207.442 320 202.666 324.776 202.666 330.667C202.666 336.558 207.442 341.334 213.333 341.334Z" fill="black"/>
<path d="M309.333 341.334C315.224 341.334 320 336.558 320 330.667C320 324.776 315.224 320 309.333 320C303.442 320 298.666 324.776 298.666 330.667C298.666 336.558 303.442 341.334 309.333 341.334Z" fill="black"/>
</svg>
