<?xml version="1.0" encoding="UTF-8" standalone="no"?> <svg width="512" height="512" viewBox="0 0 512 512" fill="none" xmlns="http://www.w3.org/2000/svg">
<path d="M426.667 186.105V389.895L256 464L85.333 389.895V186.105H426.667Z" fill="#FF9500"/>
<path d="M256 464L426.667 389.895V186.105H256V464Z" fill="#FBAB01"/>
<path d="M256 260.211L85.333 186.105L256 112L426.667 186.105L256 260.211Z" fill="#FF9500"/>
<path d="M256 260.211L309.333 324.772L480 250.667L426.667 186.105L256 260.211Z" fill="#FAC100"/>
<path d="M256 260.211L202.667 324.772L32 250.667L85.333 186.105L256 260.211Z" fill="#FAC100"/>
<path d="M426.667 186.105L480 122.105L309.333 48L256 112L202.667 48L32 122.105L85.333 186.105L256 112L426.667 186.105Z" fill="#FAC100"/>
<path d="M488.224 243.875L440.524 186.135L488.191 128.935C489.253 127.663 490.003 126.16 490.383 124.547C490.763 122.934 490.761 121.254 490.379 119.642C489.996 118.029 489.243 116.528 488.178 115.258C487.114 113.987 485.768 112.982 484.248 112.323L313.581 38.223C311.467 37.3008 309.11 37.0904 306.866 37.6236C304.622 38.1567 302.611 39.4045 301.138 41.179L256 95.341L210.859 41.174C209.384 39.4011 207.374 38.1545 205.13 37.6215C202.886 37.0885 200.53 37.2978 198.416 38.218L27.7498 112.323C26.2293 112.982 24.8835 113.987 23.8192 115.258C22.755 116.528 22.0016 118.029 21.6188 119.642C21.2361 121.254 21.2345 122.934 21.6143 124.547C21.9942 126.16 22.7448 127.663 23.8068 128.935L71.4738 186.135L23.7738 243.875C22.7204 245.15 21.9777 246.652 21.6045 248.263C21.2312 249.874 21.2375 251.549 21.6229 253.157C22.0083 254.765 22.7623 256.262 23.8252 257.528C24.8882 258.795 26.231 259.797 27.7478 260.456L74.6648 280.827V389.9C74.6646 391.979 75.2718 394.013 76.4119 395.751C77.5519 397.49 79.175 398.857 81.0818 399.686L251.749 473.786C251.765 473.793 251.783 473.795 251.799 473.802C252.421 474.067 253.068 474.271 253.73 474.412C253.768 474.42 253.804 474.439 253.841 474.447C255.264 474.739 256.732 474.739 258.156 474.447C258.194 474.439 258.229 474.42 258.267 474.412C258.928 474.271 259.575 474.067 260.198 473.802C260.214 473.795 260.232 473.793 260.248 473.786L430.915 399.686C432.822 398.857 434.445 397.49 435.585 395.751C436.725 394.013 437.332 391.979 437.332 389.9V280.827L484.249 260.456C485.766 259.797 487.108 258.795 488.171 257.528C489.234 256.262 489.988 254.765 490.374 253.157C490.759 251.549 490.765 249.874 490.392 248.263C490.019 246.652 489.276 245.15 488.223 243.875H488.224ZM312.411 60.969L462.687 126.219L423.587 173.141L273.311 107.891L312.411 60.969ZM399.884 186.107L256 248.582L112.116 186.107L256 123.63L399.884 186.107ZM199.589 60.969L238.689 107.891L88.4108 173.141L49.3108 126.219L199.589 60.969ZM88.4468 199.088L238.747 264.349L199.557 311.794L49.2568 246.531L88.4468 199.088ZM95.9998 290.088L198.417 334.558C200.54 335.478 202.904 335.683 205.154 335.143C207.404 334.603 209.417 333.347 210.891 331.563L245.334 289.868V447.741L95.9998 382.9V290.088ZM416 382.9L266.667 447.741V289.87L301.11 331.565C302.584 333.349 304.597 334.605 306.847 335.145C309.096 335.685 311.461 335.48 313.584 334.56L416 290.09V382.9ZM312.448 311.794L273.258 264.349L423.558 199.088L462.749 246.531L312.448 311.794Z" fill="black"/>
</svg>
