<?xml version="1.0" encoding="UTF-8" standalone="no"?> <svg width="512" height="512" viewBox="0 0 512 512" fill="none" xmlns="http://www.w3.org/2000/svg">
<path d="M153.481 341.333H371.571C376.558 341.333 381.388 339.585 385.221 336.394C389.054 333.203 391.647 328.769 392.551 323.864L426.666 138.664H108.444L153.481 341.333Z" fill="#EAEFF0"/>
<path d="M165.333 458.667C183.006 458.667 197.333 444.34 197.333 426.667C197.333 408.994 183.006 394.667 165.333 394.667C147.66 394.667 133.333 408.994 133.333 426.667C133.333 444.34 147.66 458.667 165.333 458.667Z" fill="#EAEFF0"/>
<path d="M373.333 458.667C391.006 458.667 405.333 444.34 405.333 426.667C405.333 408.994 391.006 394.667 373.333 394.667C355.66 394.667 341.333 408.994 341.333 426.667C341.333 444.34 355.66 458.667 373.333 458.667Z" fill="#EAEFF0"/>
<path d="M384 202.667C425.237 202.667 458.667 169.237 458.667 128C458.667 86.7626 425.237 53.333 384 53.333C342.763 53.333 309.333 86.7626 309.333 128C309.333 169.237 342.763 202.667 384 202.667Z" fill="#00CF66"/>
<path d="M403.042 325.8L425.786 202.326C438.872 194.965 449.784 184.28 457.418 171.351C465.052 158.422 469.138 143.707 469.264 128.693C469.389 113.679 465.549 98.8975 458.132 85.8428C450.715 72.7881 439.983 61.9224 427.022 54.3438C414.06 46.7652 399.328 42.7421 384.313 42.6811C369.299 42.6201 354.534 46.5234 341.511 53.9965C328.489 61.4696 317.669 72.2477 310.146 85.2417C302.623 98.2358 298.663 112.985 298.667 128H117L115.457 121.055C113.908 113.932 109.96 107.557 104.274 102.996C98.5879 98.4356 91.508 95.9657 84.2188 96H53.3328C51.9233 95.9863 50.5252 96.2521 49.2191 96.7821C47.913 97.312 46.7249 98.0955 45.7234 99.0873C44.7219 100.079 43.9269 101.26 43.3844 102.561C42.8418 103.861 42.5625 105.257 42.5625 106.666C42.5625 108.076 42.8418 109.472 43.3844 110.772C43.9269 112.073 44.7219 113.254 45.7234 114.246C46.7249 115.237 47.913 116.021 49.2191 116.551C50.5252 117.081 51.9233 117.347 53.3328 117.333H84.2188C86.6494 117.321 89.0103 118.145 90.9064 119.666C92.8026 121.186 94.1192 123.312 94.6358 125.687L152.48 385.987C144.023 388.633 136.598 393.842 131.231 400.893C125.864 407.943 122.82 416.487 122.52 425.343C122.221 434.199 124.681 442.929 129.559 450.326C134.438 457.723 141.494 463.421 149.753 466.633C158.011 469.844 167.064 470.411 175.658 468.253C184.252 466.095 191.964 461.321 197.726 454.589C203.488 447.858 207.016 439.502 207.823 430.678C208.629 421.854 206.674 412.997 202.227 405.333H336.44C331.751 413.463 329.877 422.913 331.107 432.217C332.336 441.521 336.602 450.159 343.242 456.791C349.882 463.424 358.525 467.68 367.831 468.899C377.136 470.118 386.584 468.232 394.708 463.534C402.833 458.836 409.18 451.589 412.765 442.916C416.351 434.243 416.974 424.629 414.538 415.565C412.102 406.502 406.743 398.496 399.293 392.789C391.843 387.081 382.718 383.992 373.333 384H173.891L166.78 352H371.573C379.053 352 386.298 349.379 392.047 344.592C397.796 339.806 401.686 333.157 403.042 325.8V325.8ZM384 64C396.658 64 409.032 67.7535 419.556 74.7859C430.081 81.8183 438.284 91.8138 443.128 103.508C447.972 115.203 449.24 128.071 446.77 140.486C444.301 152.901 438.205 164.304 429.255 173.255C420.304 182.205 408.9 188.301 396.486 190.77C384.071 193.24 371.203 191.972 359.508 187.128C347.814 182.284 337.818 174.081 330.786 163.556C323.753 153.032 320 140.658 320 128C320.019 111.032 326.768 94.7644 338.766 82.7662C350.764 70.768 367.032 64.019 384 64V64ZM186.667 426.667C186.667 430.886 185.416 435.011 183.072 438.519C180.727 442.027 177.396 444.761 173.498 446.376C169.599 447.991 165.31 448.413 161.172 447.59C157.034 446.767 153.233 444.735 150.249 441.752C147.266 438.768 145.234 434.967 144.411 430.829C143.588 426.691 144.01 422.401 145.625 418.503C147.239 414.605 149.974 411.273 153.482 408.929C156.99 406.585 161.115 405.334 165.334 405.334C170.99 405.34 176.413 407.589 180.412 411.588C184.412 415.588 186.661 421.011 186.667 426.667V426.667ZM394.667 426.667C394.667 430.886 393.416 435.011 391.072 438.519C388.727 442.027 385.396 444.761 381.498 446.376C377.599 447.991 373.31 448.413 369.172 447.59C365.034 446.767 361.233 444.735 358.249 441.752C355.266 438.768 353.234 434.967 352.411 430.829C351.588 426.691 352.01 422.401 353.625 418.503C355.239 414.605 357.974 411.273 361.482 408.929C364.99 406.585 369.115 405.334 373.334 405.334C378.99 405.34 384.413 407.589 388.412 411.588C392.412 415.588 394.661 421.011 394.667 426.667V426.667ZM121.742 149.333H301.475C306.936 170.766 320.538 189.226 339.392 200.791C358.245 212.356 380.865 216.115 402.446 211.269L382.062 321.932C381.61 324.385 380.314 326.602 378.397 328.197C376.481 329.793 374.066 330.666 371.572 330.666H162.039L121.742 149.333Z" fill="black"/>
<path d="M352 138.667H373.333V160C373.36 162.811 374.496 165.498 376.494 167.476C378.491 169.454 381.189 170.564 384 170.564C386.811 170.564 389.508 169.454 391.506 167.476C393.503 165.498 394.639 162.811 394.666 160V138.667H416C417.41 138.681 418.808 138.415 420.114 137.885C421.42 137.355 422.608 136.571 423.61 135.58C424.611 134.588 425.406 133.407 425.949 132.106C426.491 130.806 426.771 129.41 426.771 128.001C426.771 126.591 426.491 125.195 425.949 123.895C425.406 122.594 424.611 121.413 423.61 120.421C422.608 119.43 421.42 118.646 420.114 118.116C418.808 117.586 417.41 117.32 416 117.334H394.667V96C394.64 93.189 393.504 90.5023 391.507 88.5241C389.509 86.546 386.812 85.4363 384.001 85.4363C381.19 85.4363 378.492 86.546 376.495 88.5241C374.497 90.5023 373.361 93.189 373.334 96V117.333H352C349.189 117.36 346.503 118.496 344.524 120.493C342.546 122.491 341.437 125.188 341.437 127.999C341.437 130.811 342.546 133.508 344.524 135.506C346.503 137.503 349.189 138.639 352 138.666V138.667Z" fill="black"/>
</svg>
