<?xml version="1.0" encoding="UTF-8" standalone="no"?>
<svg
   width="300"
   height="264"
   viewBox="0 0 300 264"
   fill="none"
   version="1.1"
   id="svg14637"
   sodipodi:docname="cake.svg"
   inkscape:version="1.1.2 (b8e25be833, 2022-02-05)"
   xmlns:inkscape="http://www.inkscape.org/namespaces/inkscape"
   xmlns:sodipodi="http://sodipodi.sourceforge.net/DTD/sodipodi-0.dtd"
   xmlns="http://www.w3.org/2000/svg"
   xmlns:svg="http://www.w3.org/2000/svg">
  <sodipodi:namedview
     id="namedview14639"
     pagecolor="#ffffff"
     bordercolor="#999999"
     borderopacity="1"
     inkscape:pageshadow="0"
     inkscape:pageopacity="0"
     inkscape:pagecheckerboard="0"
     showgrid="false"
     inkscape:snap-bbox="true"
     inkscape:bbox-paths="false"
     inkscape:bbox-nodes="false"
     inkscape:snap-bbox-edge-midpoints="false"
     inkscape:snap-bbox-midpoints="true"
     inkscape:object-paths="true"
     inkscape:snap-intersection-paths="true"
     inkscape:snap-midpoints="true"
     inkscape:snap-smooth-nodes="true"
     inkscape:zoom="0.8"
     inkscape:cx="120.625"
     inkscape:cy="125"
     inkscape:window-width="1366"
     inkscape:window-height="705"
     inkscape:window-x="-8"
     inkscape:window-y="-8"
     inkscape:window-maximized="1"
     inkscape:current-layer="svg14637"
     inkscape:snap-nodes="false" />
  <path
     d="m 173.26258,39.15 c -7.30161,0.0047 -14.35117,2.671504 -19.82794,7.500962 -5.47631,4.829457 -9.00433,11.490215 -9.92212,18.733974 -19.20464,4.072417 -15.81813,34.294044 4.02956,33.779634 19.46184,0.51441 23.31994,-28.935604 4.62969,-33.565297 0.83977,-4.989781 3.41824,-9.52131 7.27805,-12.792961 3.85979,-3.271651 8.75312,-5.072089 13.81276,-5.082804 1.13686,0 2.22741,-0.451826 3.03119,-1.255592 0.8042,-0.803765 1.25557,-1.894316 1.25557,-3.031163 0,-1.136847 -0.45137,-2.227397 -1.25557,-3.031164 C 175.48999,39.601823 174.39944,39.15 173.26258,39.15 Z"
     fill="url(#paint0_linear)"
     id="path14572"
     style="fill:#b72008;fill-opacity:1;stroke-width:4.28675" />
  <path
     d="m 228.9904,39.15 c -7.30162,0.0047 -14.3512,2.671504 -19.82796,7.500962 -5.47633,4.829457 -9.00433,11.490215 -9.92212,18.733974 -19.20466,4.072417 -15.81811,34.294044 4.02955,33.779634 19.46188,0.51441 23.31996,-28.935604 4.62971,-33.565297 0.83976,-4.989781 3.41825,-9.52131 7.27805,-12.792961 3.85978,-3.271651 8.75312,-5.072089 13.81277,-5.082804 1.13684,0 2.2274,-0.451826 3.03116,-1.255592 0.80378,-0.803765 1.25559,-1.894316 1.25559,-3.031163 0,-1.136847 -0.45181,-2.227397 -1.25559,-3.031164 C 231.2178,39.601823 230.12724,39.15 228.9904,39.15 Z"
     fill="url(#paint1_linear)"
     id="path14574"
     style="fill:#b72008;fill-opacity:1;stroke-width:4.28675" />
  <path
     d="m 113.24804,39.15 c -7.30164,0.0047 -14.3512,2.671504 -19.82795,7.500962 -5.476336,4.829457 -9.004335,11.490215 -9.922126,18.733974 -19.204659,4.072417 -15.818124,34.294044 4.02955,33.779634 19.461876,0.51441 23.319946,-28.935604 4.629696,-33.565297 0.83977,-4.989781 3.41826,-9.52131 7.27806,-12.792961 3.85978,-3.271651 8.75311,-5.072089 13.81277,-5.082804 1.13684,0 2.2274,-0.451826 3.03115,-1.255592 0.80421,-0.803765 1.2556,-1.894316 1.2556,-3.031163 0,-1.136847 -0.45139,-2.227397 -1.2556,-3.031164 C 115.47544,39.601823 114.38488,39.15 113.24804,39.15 Z"
     fill="url(#paint2_linear)"
     id="path14576"
     style="fill:#b72008;fill-opacity:1;stroke-width:4.28675" />
  <path
     d="M 227.91871,94.877805 H 67.16543 c -33.35095,1.328894 -26.449274,37.423375 -26.792214,60.271745 3.815212,9.08793 16.075327,-1.88615 19.461865,-5.9157 1.319034,-2.08036 3.142191,-3.79378 5.300571,-4.98121 2.158381,-1.187 4.582112,-1.80987 7.045281,-1.80987 2.46317,0 4.886899,0.62287 7.045282,1.80987 2.158379,1.18743 3.981536,2.90085 5.300566,4.98121 2.136089,2.93171 4.934916,5.31686 8.167989,6.96126 3.23306,1.64481 6.80907,2.50176 10.43652,2.50176 3.62746,0 7.20348,-0.85695 10.43652,-2.50176 3.23308,-1.6444 6.03191,-4.02955 8.16801,-6.96126 1.31905,-2.08036 3.14219,-3.79378 5.30055,-4.98121 2.15839,-1.187 4.58213,-1.80987 7.04529,-1.80987 2.46317,0 4.8869,0.62287 7.04528,1.80987 2.15838,1.18743 3.98154,2.90085 5.30058,4.98121 2.13609,2.93171 4.9349,5.31686 8.16798,6.96126 3.23307,1.64481 6.80908,2.50176 10.43651,2.50176 3.62748,0 7.20348,-0.85695 10.43656,-2.50176 3.23306,-1.6444 6.03188,-4.02955 8.16796,-6.96126 18.43305,-21.09083 23.66289,10.15961 43.29623,9.73093 9.98814,0 14.83217,-5.57278 19.11892,-10.20248 2.35772,-3.90095 8.14485,-4.54396 8.57351,-9.08791 1.54323,-20.79076 -0.64301,-43.63916 -26.70648,-44.796585 z"
     fill="url(#paint3_linear)"
     id="path14578"
     style="fill:#ff457a;fill-opacity:1;stroke-width:4.28675" />
  <path
     d="m 254.23937,176.32656 c -4.28674,-6.51586 -11.61709,2.48633 -14.83215,5.65851 -1.32418,2.07994 -3.15206,3.7925 -5.31344,4.97908 -2.16182,1.18614 -4.58812,1.80817 -7.05385,1.80817 -2.46617,0 -4.89205,-0.62203 -7.05385,-1.80817 -2.16179,-1.18658 -3.98925,-2.89914 -5.31344,-4.97908 -2.1361,-2.9317 -4.93491,-5.31684 -8.16796,-6.96167 -3.2331,-1.64441 -6.8091,-2.50176 -10.43654,-2.50176 -3.62746,0 -7.20348,0.85735 -10.43653,2.50176 -3.2331,1.64483 -6.0319,4.02997 -8.16799,6.96167 -1.31905,2.08038 -3.14221,3.79379 -5.30058,4.98079 -2.15837,1.18743 -4.5821,1.80987 -7.04527,1.80987 -2.4636,0 -4.88692,-0.62244 -7.04528,-1.80987 -2.15839,-1.187 -3.98155,-2.90041 -5.30057,-4.98079 -2.13609,-2.9317 -4.93492,-5.31684 -8.16799,-6.96167 -3.23307,-1.64441 -6.80907,-2.50176 -10.43654,-2.50176 -3.62743,0 -7.20345,0.85735 -10.43653,2.50176 -3.23307,1.64483 -6.03189,4.02997 -8.16798,6.96167 -3.64372,3.90095 -6.60161,7.20177 -12.34585,7.20177 -5.74424,0 -8.5735,-3.08646 -12.345849,-6.98742 -2.140806,-2.93215 -4.94349,-5.3173 -8.179983,-6.96126 -3.236505,-1.6444 -6.815513,-2.50132 -10.445963,-2.50132 -3.630454,0 -7.209465,0.85692 -10.445963,2.50132 -3.2365,1.64396 -6.039182,4.02911 -8.179987,6.96126 -2.406154,3.22621 -5.837444,5.53892 -9.730974,6.55874 -0.998642,0.18262 -1.900061,0.71375 -2.54376,1.49864 -0.643698,0.78491 -0.987925,1.773 -0.971379,2.78812 v 30.43593 c 0,1.13686 0.451653,2.22698 1.255549,3.03118 0.803937,0.80376 1.894272,1.25559 3.031204,1.25559 H 250.42417 c 1.13684,0 2.2274,-0.45183 3.03116,-1.25559 0.80379,-0.8042 1.25559,-1.89432 1.25559,-3.03118 V 178.2556 c -0.0132,-0.66999 -0.17403,-1.32888 -0.47155,-1.92904 z"
     fill="url(#paint5_linear)"
     id="path14582"
     style="fill:#eed407;fill-opacity:1;stroke-width:4.28675" />
  <path
     d="m 254.19532,139.02565 c -9.21652,-6.50793 -16.46113,10.51048 -27.22089,9.16613 -13.88909,-0.67218 -14.23203,-12.22148 -30.95036,-11.91596 -16.71833,-0.36665 -17.14702,11.24378 -30.95038,11.91596 -13.93195,-0.67218 -14.23202,-12.22148 -30.95036,-11.91596 -16.71834,-0.36665 -17.14702,11.24378 -30.95035,11.91596 -13.931966,-0.67218 -14.232034,-12.22148 -30.950377,-11.91596 -12.860262,0 -16.075328,6.11076 -23.319983,10.11329 -2.572052,1.83321 -8.573509,1.22215 -8.573509,4.64415 v 27.49834 c -0.01032,0.4519 0.120114,0.89983 0.382036,1.31168 0.261922,0.41157 0.648801,0.77667 1.132646,1.06907 0.483889,0.2924 1.052743,0.50443 1.665533,0.62115 0.612791,0.11644 1.254261,0.13474 1.878156,0.0537 12.303026,-0.97771 14.832209,-11.42707 26.835121,-11.64096 5.872853,0 8.573513,2.19987 12.345852,4.98026 2.13609,2.08926 4.934909,3.78956 8.167985,4.96162 3.23307,1.17204 6.80908,1.7831 10.43653,1.7831 3.62746,0 7.20346,-0.61106 10.43653,-1.7831 3.23307,-1.17206 6.03188,-2.87236 8.16798,-4.96162 1.31904,-1.48308 3.14218,-2.70431 5.30056,-3.55034 2.1584,-0.84634 4.58167,-1.28997 7.04529,-1.28997 2.46315,0 4.88689,0.44363 7.0453,1.28997 2.15836,0.84603 3.98152,2.06726 5.30054,3.55034 2.13611,2.08926 4.93492,3.78956 8.168,4.96162 3.23307,1.17204 6.80909,1.7831 10.43652,1.7831 3.62746,0 7.20346,-0.61106 10.43654,-1.7831 3.23307,-1.17206 6.03189,-2.87236 8.16796,-4.96162 3.64376,-2.78039 6.47303,-4.98026 12.34588,-4.98026 5.87284,0 8.5735,2.19987 12.34585,4.98026 2.14553,2.08988 4.95205,3.78956 8.19198,4.96162 3.23995,1.17172 6.82194,1.7825 10.4554,1.7825 3.63302,0 7.21546,-0.61078 10.4554,-1.7825 3.23994,-1.17206 6.04646,-2.87174 8.19198,-4.96162 2.35771,-3.05537 8.57351,-3.48311 9.00219,-6.81348 v -27.49835 c 0.0348,-0.54965 -0.12776,-1.09656 -0.47155,-1.58879 z"
     fill="url(#paint4_linear)"
     id="path14580"
     style="fill:#ffffff;fill-opacity:1;stroke-width:3.61906" />
  <path
     d="m 254.23707,155.33302 c -9.21652,-6.50794 -16.46113,10.51047 -27.22089,9.16612 -13.88907,-0.67219 -14.23203,-12.2215 -30.95036,-11.91597 -16.71833,-0.36663 -17.14701,11.24378 -30.95036,11.91597 -13.93195,-0.67219 -14.23203,-12.2215 -30.95035,-11.91597 -16.71836,-0.36663 -17.14704,11.24378 -30.95038,11.91597 -13.931956,-0.67219 -14.232024,-12.2215 -30.950362,-11.91597 -12.860263,0 -16.075329,6.11075 -23.319982,10.11328 -2.572055,1.83324 -8.573509,1.22215 -8.573509,4.64417 v 27.49833 c -0.01032,0.45191 0.120113,0.89983 0.382035,1.31168 0.261919,0.41158 0.648799,0.77668 1.132646,1.06907 0.483888,0.29241 1.052741,0.50444 1.665533,0.62117 0.612793,0.11641 1.254261,0.13473 1.878154,0.0534 12.303027,-0.97771 14.832211,-11.42707 26.835123,-11.64096 5.872854,0 8.573507,2.19986 12.345847,4.98028 2.13609,2.08925 4.93491,3.78956 8.167985,4.96159 3.23306,1.17204 6.80908,1.78313 10.43653,1.78313 3.62745,0 7.20347,-0.61109 10.43653,-1.78313 3.23307,-1.17203 6.03189,-2.87234 8.16797,-4.96159 1.31905,-1.4831 3.1422,-2.70434 5.30059,-3.55036 2.15838,-0.84635 4.58167,-1.28997 7.04529,-1.28997 2.46316,0 4.8869,0.44362 7.04527,1.28997 2.15839,0.84602 3.98152,2.06726 5.30057,3.55036 2.13609,2.08925 4.93491,3.78956 8.16797,4.96159 3.23307,1.17204 6.8091,1.78313 10.43654,1.78313 3.62745,0 7.20346,-0.61109 10.43652,-1.78313 3.23307,-1.17203 6.0319,-2.87234 8.16799,-4.96159 3.64373,-2.78042 6.473,-4.98028 12.34585,-4.98028 5.87286,0 8.57352,2.19986 12.34586,4.98028 2.14551,2.08986 4.95207,3.78956 8.19198,4.96159 3.23994,1.17173 6.82195,1.7825 10.45539,1.7825 3.63303,0 7.21547,-0.61077 10.45541,-1.7825 3.23992,-1.17203 6.04646,-2.87173 8.19197,-4.96159 2.35773,-3.05539 8.57352,-3.48313 9.00219,-6.81349 v -27.4983 c 0.0348,-0.54966 -0.12776,-1.09658 -0.47155,-1.58878 z"
     fill="url(#paint4_linear)"
     id="path14580-7"
     style="fill:#ffffff;fill-opacity:1;stroke-width:3.61906" />
  <defs
     id="defs14635">
    <linearGradient
       id="paint0_linear"
       x1="28.079901"
       y1="17"
       x2="38.969898"
       y2="17"
       gradientUnits="userSpaceOnUse">
      <stop
         stop-color="#9F002B"
         id="stop14586" />
      <stop
         offset="0.69"
         stop-color="#6A001F"
         id="stop14588" />
      <stop
         offset="1"
         stop-color="#51001A"
         id="stop14590" />
    </linearGradient>
    <linearGradient
       id="paint1_linear"
       x1="489.54901"
       y1="248.026"
       x2="608.43402"
       y2="248.026"
       gradientUnits="userSpaceOnUse">
      <stop
         stop-color="#9F002B"
         id="stop14593" />
      <stop
         offset="0.69"
         stop-color="#6A001F"
         id="stop14595" />
      <stop
         offset="1"
         stop-color="#51001A"
         id="stop14597" />
    </linearGradient>
    <linearGradient
       id="paint2_linear"
       x1="167.793"
       y1="248.026"
       x2="286.67801"
       y2="248.026"
       gradientUnits="userSpaceOnUse">
      <stop
         stop-color="#9F002B"
         id="stop14600" />
      <stop
         offset="0.69"
         stop-color="#6A001F"
         id="stop14602" />
      <stop
         offset="1"
         stop-color="#51001A"
         id="stop14604" />
    </linearGradient>
    <linearGradient
       id="paint3_linear"
       x1="6.9198999"
       y1="30.48"
       x2="57.079899"
       y2="30.48"
       gradientUnits="userSpaceOnUse">
      <stop
         stop-color="#703D04"
         id="stop14607" />
      <stop
         offset="0.38"
         stop-color="#583003"
         id="stop14609" />
      <stop
         offset="1"
         stop-color="#2A1702"
         id="stop14611" />
    </linearGradient>
    <linearGradient
       id="paint4_linear"
       x1="6.9998899"
       y1="39.470001"
       x2="56.999901"
       y2="39.470001"
       gradientUnits="userSpaceOnUse">
      <stop
         stop-color="#FDFBF7"
         id="stop14614" />
      <stop
         offset="0.35"
         stop-color="#F5F0DF"
         id="stop14616" />
      <stop
         offset="1"
         stop-color="#E3D7A9"
         id="stop14618" />
    </linearGradient>
    <linearGradient
       id="paint5_linear"
       x1="6.9998899"
       y1="47.560101"
       x2="56.999901"
       y2="47.560101"
       gradientUnits="userSpaceOnUse">
      <stop
         stop-color="#AC9430"
         id="stop14621" />
      <stop
         offset="0.36"
         stop-color="#9F7C21"
         id="stop14623" />
      <stop
         offset="1"
         stop-color="#834800"
         id="stop14625" />
    </linearGradient>
    <linearGradient
       id="paint6_linear"
       x1="3"
       y1="53"
       x2="60.970001"
       y2="53"
       gradientUnits="userSpaceOnUse">
      <stop
         stop-color="#C6C6C6"
         id="stop14628" />
      <stop
         offset="0.42"
         stop-color="#AEAEAE"
         id="stop14630" />
      <stop
         offset="1"
         stop-color="#878787"
         id="stop14632" />
    </linearGradient>
  </defs>
</svg>
