<?xml version="1.0" encoding="UTF-8" standalone="no"?>
<svg
   id="Layer_1"
   data-name="Layer 1"
   viewBox="0 0 400 400"
   version="1.1"
   sodipodi:docname="delivery.svg"
   width="400"
   height="400"
   inkscape:version="1.1.2 (b8e25be833, 2022-02-05)"
   xmlns:inkscape="http://www.inkscape.org/namespaces/inkscape"
   xmlns:sodipodi="http://sodipodi.sourceforge.net/DTD/sodipodi-0.dtd"
   xmlns:xlink="http://www.w3.org/1999/xlink"
   xmlns="http://www.w3.org/2000/svg"
   xmlns:svg="http://www.w3.org/2000/svg"
   xmlns:rdf="http://www.w3.org/1999/02/22-rdf-syntax-ns#"
   xmlns:cc="http://creativecommons.org/ns#"
   xmlns:dc="http://purl.org/dc/elements/1.1/">
  <defs
     id="defs8148">
    <linearGradient
       inkscape:collect="always"
       id="linearGradient8370">
      <stop
         style="stop-color:#f68b34;stop-opacity:1"
         offset="0"
         id="stop8366" />
      <stop
         style="stop-color:#ff3285;stop-opacity:1"
         offset="1"
         id="stop8368" />
    </linearGradient>
    <linearGradient
       inkscape:collect="always"
       id="linearGradient8360">
      <stop
         style="stop-color:#f68b34;stop-opacity:1"
         offset="0"
         id="stop8356" />
      <stop
         style="stop-color:#ff3285;stop-opacity:1"
         offset="1"
         id="stop8358" />
    </linearGradient>
    <linearGradient
       inkscape:collect="always"
       xlink:href="#linearGradient8360"
       id="linearGradient8362"
       x1="60.781857"
       y1="216.65282"
       x2="353.40289"
       y2="216.65282"
       gradientUnits="userSpaceOnUse" />
    <linearGradient
       inkscape:collect="always"
       xlink:href="#linearGradient8370"
       id="linearGradient8364"
       x1="60.781857"
       y1="216.65282"
       x2="353.40289"
       y2="216.65282"
       gradientUnits="userSpaceOnUse" />
  </defs>
  <sodipodi:namedview
     id="namedview8146"
     pagecolor="#ffffff"
     bordercolor="#999999"
     borderopacity="1"
     inkscape:pageshadow="0"
     inkscape:pageopacity="0"
     inkscape:pagecheckerboard="0"
     showgrid="false"
     inkscape:zoom="0.75268202"
     inkscape:cx="435.1107"
     inkscape:cy="192.64443"
     inkscape:window-width="1366"
     inkscape:window-height="705"
     inkscape:window-x="-8"
     inkscape:window-y="-8"
     inkscape:window-maximized="1"
     inkscape:current-layer="Layer_1" />
  <title
     id="title8139">Delivery Truck</title>
  <path
     d="M 351.78838,202.88639 327.76894,150.04361 A 25.053244,25.053244 0 0 0 305.0101,135.38639 H 260.82159 V 116.63264 A 18.774256,18.774256 0 0 0 242.06785,97.878899 H 85.786456 A 18.774256,18.774256 0 0 0 67.032712,116.63264 v 75.01498 a 6.2514433,6.2514433 0 1 0 12.5023,0 v -75.01498 a 6.2584759,6.2584759 0 0 1 6.251444,-6.25144 H 242.06785 a 6.2584759,6.2584759 0 0 1 6.25144,6.25144 v 100.02017 a 6.259648,6.259648 0 0 1 -6.25144,6.25085 h -75.01498 a 6.2514433,6.2514433 0 0 0 0,12.5023 h 75.01498 a 18.774256,18.774256 0 0 0 18.75374,-18.75374 v -68.76353 h 44.18851 a 12.530431,12.530431 0 0 1 11.38235,7.32861 l 2.35184,5.17369 h -26.66548 a 12.51578,12.51578 0 0 0 -12.50348,12.50289 v 25.00518 a 12.514608,12.514608 0 0 0 12.5023,12.5023 h 49.19342 a 18.621882,18.621882 0 0 1 0.81637,5.41515 v 25.84148 a 6.259648,6.259648 0 0 1 -6.25086,6.25086 h -19.38433 a 31.257802,31.257802 0 0 0 -61.25207,0 H 153.91998 a 31.257802,31.257802 0 0 0 -61.252073,0 h -6.881451 a 6.259648,6.259648 0 0 1 -6.251444,-6.25144 v -6.25086 a 6.2514433,6.2514433 0 0 0 0,-12.5023 H 60.781269 a 6.2514433,6.2514433 0 0 0 0,12.5023 h 6.251443 v 6.25144 a 18.774256,18.774256 0 0 0 18.753744,18.75375 h 6.882038 a 31.257802,31.257802 0 0 0 61.252076,0 h 101.28017 a 31.257802,31.257802 0 0 0 61.25207,0 h 19.38375 a 18.774256,18.774256 0 0 0 18.75375,-18.75375 v -25.84148 a 31.002283,31.002283 0 0 0 -2.80193,-12.93012 z m -228.49444,70.02765 a 18.753744,18.753744 0 1 1 18.75375,-18.75375 18.774256,18.774256 0 0 1 -18.75375,18.75375 z m 162.53225,0 a 18.753744,18.753744 0 1 1 18.75374,-18.75375 18.774256,18.774256 0 0 1 -18.75315,18.75375 z m 6.25144,-100.02016 h 32.3467 l 11.36535,25.00518 h -43.71205 z"
     id="path8141"
     style="stroke-width:0.586055;fill-opacity:1;fill:url(#linearGradient8362)" />
  <path
     d="m 60.781855,216.65281 h 31.256044 a 6.2514433,6.2514433 0 0 0 0,-12.5023 H 60.781855 a 6.2514433,6.2514433 0 0 0 0,12.5023 z"
     id="path8143"
     style="stroke-width:0.586055;fill-opacity:1;fill:url(#linearGradient8364)" />
  <metadata
     id="metadata8150">
    <rdf:RDF>
      <cc:Work
         rdf:about="">
        <dc:title>Delivery Truck</dc:title>
      </cc:Work>
    </rdf:RDF>
  </metadata>
</svg>
