<?xml version="1.0" encoding="UTF-8" standalone="no"?>
<!-- Generator: Adobe Illustrator 18.0.0, SVG Export Plug-In . SVG Version: 6.00 Build 0)  -->

<svg
   version="1.1"
   id="Capa_1"
   x="0px"
   y="0px"
   viewBox="0 0 400 400"
   xml:space="preserve"
   sodipodi:docname="drink.svg"
   width="400"
   height="400"
   inkscape:version="1.1.2 (b8e25be833, 2022-02-05)"
   xmlns:inkscape="http://www.inkscape.org/namespaces/inkscape"
   xmlns:sodipodi="http://sodipodi.sourceforge.net/DTD/sodipodi-0.dtd"
   xmlns="http://www.w3.org/2000/svg"
   xmlns:svg="http://www.w3.org/2000/svg"><defs
   id="defs16658"><inkscape:path-effect
     effect="fill_between_many"
     method="originald"
     linkedpaths="#path17390,0,1"
     id="path-effect21193" /></defs><sodipodi:namedview
   id="namedview16656"
   pagecolor="#ffffff"
   bordercolor="#999999"
   borderopacity="1"
   inkscape:pageshadow="0"
   inkscape:pageopacity="0"
   inkscape:pagecheckerboard="0"
   showgrid="false"
   inkscape:zoom="0.56568543"
   inkscape:cx="144.07301"
   inkscape:cy="166.17009"
   inkscape:window-width="1366"
   inkscape:window-height="705"
   inkscape:window-x="-8"
   inkscape:window-y="-8"
   inkscape:window-maximized="1"
   inkscape:current-layer="Capa_1"
   inkscape:object-paths="true"
   inkscape:snap-intersection-paths="true"
   inkscape:snap-smooth-nodes="true"
   inkscape:snap-midpoints="true" />

<g
   id="g16625">
</g>
<g
   id="g16627">
</g>
<g
   id="g16629">
</g>
<g
   id="g16631">
</g>
<g
   id="g16633">
</g>
<g
   id="g16635">
</g>
<g
   id="g16637">
</g>
<g
   id="g16639">
</g>
<g
   id="g16641">
</g>
<g
   id="g16643">
</g>
<g
   id="g16645">
</g>
<g
   id="g16647">
</g>
<g
   id="g16649">
</g>
<g
   id="g16651">
</g>
<g
   id="g16653">
</g>
<style
   type="text/css"
   id="style17388">
	.st0{fill:#80B38F;}
</style><g
   style="fill:none"
   id="g25579"
   transform="matrix(0.54347826,0,0,0.54347826,47.826087,58.969508)"><path
     d="m 368,440 c 5.193,15.579 5.193,32.421 0,48 H 144 c -5.193,-15.579 -5.193,-32.421 0,-48 z"
     fill="#e6e5e0"
     id="path25528"
     style="fill:#edc80f;fill-opacity:1" /><path
     d="M 368,136 H 144 v 32 h 224 z"
     fill="#ffc864"
     id="path25530"
     style="fill:#edc80f;fill-opacity:1" /><path
     d="M 368,168 H 144 v 272 h 224 z"
     fill="#ecab2c"
     id="path25532"
     style="fill:#edc80f;fill-opacity:1" /><path
     d="m 272,216 c 0,-8.837 -7.163,-16 -16,-16 -8.837,0 -16,7.163 -16,16 v 176 c 0,8.837 7.163,16 16,16 8.837,0 16,-7.163 16,-16 z"
     fill="#d78e0c"
     id="path25534"
     style="fill:#f0fac8;fill-opacity:1" /><path
     d="m 208,216 c 0,-8.837 -7.163,-16 -16,-16 -8.837,0 -16,7.163 -16,16 v 176 c 0,8.837 7.163,16 16,16 8.837,0 16,-7.163 16,-16 z"
     fill="#d78e0c"
     id="path25536"
     style="fill:#f0fac8;fill-opacity:1" /><path
     d="m 336,216 c 0,-8.837 -7.163,-16 -16,-16 -8.837,0 -16,7.163 -16,16 v 176 c 0,8.837 7.163,16 16,16 8.837,0 16,-7.163 16,-16 z"
     fill="#d78e0c"
     id="path25538"
     style="fill:#f0fac8;fill-opacity:1" /><path
     d="m 368,168 h 36 c 15.913,0 31.174,6.321 42.426,17.574 C 457.679,196.826 464,212.087 464,228 v 136 c 0,15.913 -6.321,31.174 -17.574,42.426 C 435.174,417.679 419.913,424 404,424 h -36 v -48 h 28 c 5.304,0 10.391,-2.107 14.142,-5.858 C 413.893,366.391 416,361.304 416,356 V 236 c 0,-5.304 -2.107,-10.391 -5.858,-14.142 C 406.391,218.107 401.304,216 396,216 h -28 z"
     fill="#e6e5e0"
     id="path25540"
     style="fill:#edc80f;fill-opacity:1" /><path
     d="m 160,136 c 4.243,0 8.313,1.686 11.314,4.686 3,3.001 4.686,7.071 4.686,11.314 0,5.253 1.035,10.454 3.045,15.307 2.01,4.853 4.956,9.263 8.671,12.977 C 195.217,187.786 205.391,192 216,192 v 0 c 5.253,0 10.454,-1.035 15.307,-3.045 4.853,-2.01 9.263,-4.956 12.977,-8.671 3.715,-3.714 6.661,-8.124 8.671,-12.977 2.01,-4.853 3.045,-10.054 3.045,-15.307 0,-4.243 1.686,-8.313 4.686,-11.314 3.001,-3 7.071,-4.686 11.314,-4.686 h 96 l 9.64,-24.1 c 2,-5 2.918,-10.367 2.694,-15.7482 -0.224,-5.3807 -1.585,-10.653 -3.994,-15.4697 v 0 c -2.597,-5.1941 -6.346,-9.7264 -10.961,-13.2514 -4.615,-3.525 -9.975,-5.9495 -15.669,-7.0886 l -0.447,-0.089 c -13.866,-2.7728 -26.601,-9.5881 -36.6,-19.587 v 0 c -5.008,-5.008 -11.312,-8.5226 -18.204,-10.1498 -6.893,-1.6272 -14.103,-1.3028 -20.822,0.9368 l -4.863,1.621 c -13.487,4.4957 -28.067,4.4957 -41.554,0 -8.476,-2.8254 -17.486,-3.6777 -26.342,-2.4918 -8.856,1.1859 -17.324,4.3787 -24.758,9.3348 l -16.62,11.083 c -4.95,3.2998 -10.498,5.598 -16.332,6.765 v 0 c -9.57,1.9143 -18.511,6.1855 -26.014,12.4268 -7.502,6.2414 -13.33,14.2557 -16.954,23.3172 v 0 C 97.4266,100.439 96.0011,107.835 96,115.3 V 192 c 0,6.365 2.5286,12.47 7.029,16.971 4.501,4.501 10.606,7.029 16.971,7.029 6.365,0 12.47,-2.528 16.971,-7.029 C 141.471,204.47 144,198.365 144,192 v -40 c 0,-4.243 1.686,-8.313 4.686,-11.314 3.001,-3 7.071,-4.686 11.314,-4.686 z"
     fill="#ecebe6"
     id="path25542"
     style="fill:#f0fac8;fill-opacity:1" /><path
     d="m 392,168 h -24 v 48 h 24 z"
     fill="#aeadaa"
     id="path25554"
     style="fill:#edc80f;fill-opacity:1" /><path
     d="m 392,376 h -24 v 48 h 24 z"
     fill="#aeadaa"
     id="path25556"
     style="fill:#edc80f;fill-opacity:1" /></g></svg>
