<?xml version="1.0" encoding="UTF-8" standalone="no"?>
<svg
   width="400"
   height="400"
   viewBox="0 0 400 400"
   fill="none"
   version="1.1"
   id="svg846"
   sodipodi:docname="hotdog.svg"
   inkscape:version="1.1.2 (b8e25be833, 2022-02-05)"
   xmlns:inkscape="http://www.inkscape.org/namespaces/inkscape"
   xmlns:sodipodi="http://sodipodi.sourceforge.net/DTD/sodipodi-0.dtd"
   xmlns:xlink="http://www.w3.org/1999/xlink"
   xmlns="http://www.w3.org/2000/svg"
   xmlns:svg="http://www.w3.org/2000/svg">
  <sodipodi:namedview
     id="namedview848"
     pagecolor="#ffffff"
     bordercolor="#999999"
     borderopacity="1"
     inkscape:pageshadow="0"
     inkscape:pageopacity="0"
     inkscape:pagecheckerboard="0"
     showgrid="false"
     inkscape:zoom="0.8"
     inkscape:cx="534.375"
     inkscape:cy="278.75"
     inkscape:window-width="1366"
     inkscape:window-height="705"
     inkscape:window-x="-8"
     inkscape:window-y="-8"
     inkscape:window-maximized="1"
     inkscape:current-layer="svg846" />
  <path
     d="m 55.75687,199.7301 c -4.75219,-7.9217 -4.36666,-18.02466 0.96212,-25.13886 3.29726,-4.3969 8.06767,-7.45988 13.4383,-8.62817 5.37063,-1.16829 10.98234,-0.36355 15.80813,2.26717 7.98884,4.35772 16.20742,8.28112 24.6198,11.75163 -0.63568,0.79443 -1.19303,1.64866 -1.66378,2.55099 l -4.08008,7.84542 c -0.6728,1.29405 -0.80337,2.80252 -0.36423,4.19347 0.43914,1.39027 1.41294,2.54963 2.70699,3.22242 1.29406,0.6728 2.80253,0.80406 4.19348,0.36492 1.39095,-0.43982 2.54962,-1.41363 3.22242,-2.70768 l 4.08008,-7.84473 c 0.47075,-0.8934 1.20059,-1.62392 2.09262,-2.09605 0.89271,-0.47281 1.90706,-0.66455 2.91041,-0.55185 0.67624,0.23572 1.35385,0.4687 2.03146,0.69823 0.97105,0.59445 1.70914,1.50366 2.09192,2.57642 0.38279,1.07208 0.38691,2.24312 0.011,3.31795 l -0.15875,0.45563 c -0.64394,1.8459 -0.90921,3.80244 -0.78138,5.75349 0.12782,1.95036 0.64668,3.85536 1.52634,5.60161 0.87965,1.74556 2.10086,3.29733 3.59215,4.56114 1.49128,1.26382 3.22173,2.21494 5.08824,2.79634 l 1.15111,0.35805 c 3.60796,1.13942 7.51761,0.82467 10.89672,-0.87622 3.37979,-1.70089 5.96103,-4.65392 7.19529,-8.23026 l 1.6686,-4.77625 c 0.24122,-0.67555 0.67898,-1.26313 1.25763,-1.68784 0.57796,-0.4247 1.27,-0.66661 1.98678,-0.6941 0.69548,0.12508 1.39026,0.2474 2.08574,0.36698 0.78344,0.32094 1.42738,0.90852 1.81704,1.65966 0.39034,0.75046 0.50099,1.61568 0.31337,2.44035 l -0.30444,1.34285 c -0.40959,1.89126 -0.43845,3.84574 -0.0852,5.74868 0.35393,1.90225 1.08308,3.71585 2.14485,5.33359 1.06246,1.61774 2.43623,3.008 4.0416,4.08901 1.60536,1.08102 3.41003,1.83078 5.30816,2.2067 1.89881,0.37591 3.85261,0.36973 5.74868,-0.0179 1.89606,-0.3876 3.69592,-1.14973 5.29441,-2.24037 1.5985,-1.09132 2.96334,-2.48983 4.01549,-4.11444 1.05215,-1.62461 1.76961,-3.44234 2.11117,-5.34734 l 0.38278,-2.15377 c 0.24603,-1.38271 0.97037,-2.63484 2.04657,-3.53718 1.0762,-0.90164 2.43623,-1.39645 3.84024,-1.39645 1.4047,0 2.76404,0.49481 3.84093,1.39645 1.0762,0.90234 1.80054,2.15447 2.04588,3.53718 l 0.37111,2.08711 c 0.32781,1.91462 1.03496,3.74403 2.08024,5.38101 1.04459,1.63767 2.40668,3.04924 4.00518,4.15224 1.59849,1.10369 3.4011,1.87614 5.30266,2.27198 1.90157,0.39654 3.86292,0.40822 5.76929,0.0357 1.90569,-0.37248 3.7186,-1.12293 5.33016,-2.20669 1.61224,-1.08308 2.99151,-2.47815 4.05603,-4.10208 1.0652,-1.62392 1.79504,-3.44508 2.14622,-5.35489 0.35117,-1.9105 0.31681,-3.87185 -0.10103,-5.76861 l -0.30375,-1.34216 c -0.17937,-0.77038 -0.0948,-1.57925 0.24053,-2.29603 0.33537,-0.71678 0.90164,-1.30024 1.60812,-1.65623 0.92776,-0.156 1.85483,-0.31681 2.78053,-0.48106 0.6405,0.10034 1.24113,0.37179 1.74006,0.78482 0.49893,0.41371 0.87622,0.95387 1.09339,1.56413 l 1.66859,4.77625 c 1.23426,3.57634 3.8155,6.52937 7.19529,8.23026 3.37911,1.70158 7.28876,2.01565 10.89603,0.87691 l 1.15249,-0.35942 c 1.86651,-0.58071 3.59696,-1.53184 5.08824,-2.79565 1.49198,-1.26382 2.71319,-2.8149 3.59284,-4.56115 0.87966,-1.74556 1.39851,-3.65056 1.52634,-5.60161 0.12782,-1.95035 -0.13813,-3.9069 -0.78276,-5.7528 l -0.2687,-0.76969 c -0.31063,-0.89753 -0.34018,-1.86927 -0.0838,-2.78397 0.25633,-0.91539 0.78619,-1.73045 1.51809,-2.33589 1.24113,-0.41234 2.47815,-0.8343 3.71104,-1.26657 0.8233,0.0309 1.62323,0.27833 2.32008,0.71747 0.69686,0.43845 1.26519,1.05352 1.64867,1.78199 l 4.21272,8.10037 c 0.33055,0.64462 0.7855,1.21777 1.33872,1.68578 0.55253,0.46869 1.19303,0.8233 1.88301,1.04321 0.69067,0.21992 1.41775,0.3017 2.13935,0.23984 0.72227,-0.0618 1.42462,-0.26595 2.06787,-0.59995 0.64256,-0.33468 1.21296,-0.79237 1.67821,-1.34834 0.46526,-0.55528 0.81575,-1.19716 1.03222,-1.8892 0.21648,-0.69135 0.29345,-1.41913 0.22748,-2.14072 -0.066,-0.72159 -0.27352,-1.42256 -0.61164,-2.06375 l -4.21272,-8.10037 c -0.38897,-0.74565 -0.83842,-1.45831 -1.34422,-2.13042 8.55533,-3.51311 16.91066,-7.49286 25.02891,-11.92274 4.82573,-2.63003 10.43764,-3.43478 15.80766,-2.26718 5.3707,1.16829 10.14076,4.23128 13.43809,8.62817 5.51089,7.36023 5.66208,17.6405 0.37591,25.58213 l -4.44706,6.68056 c -5.91567,-3.38186 -12.56325,-5.28067 -19.37301,-5.53426 -6.80907,-0.2529 -13.57897,1.1463 -19.73036,4.07939 -31.45588,14.99261 -65.85517,22.79679 -100.70184,22.84627 -34.84598,-0.0481 -69.24458,-7.85091 -100.70114,-22.84214 -6.17201,-2.94272 -12.96713,-4.34123 -19.79977,-4.07527 -6.83272,0.26595 -13.4985,2.18814 -19.42366,5.60092 z M 281.3357,171.61828 c 9.61159,-3.74265 18.97372,-8.099 28.02729,-13.04087 2.10567,-1.14699 4.32611,-2.06856 6.62489,-2.74892 -3.73922,-2.16752 -7.95125,-3.39079 -12.2698,-3.56466 -4.31924,-0.17387 -8.61511,0.70716 -12.5172,2.56749 -5.37414,2.57093 -10.85411,4.91507 -16.4406,7.03242 3.03481,2.59636 5.30748,5.96791 6.57542,9.75454 z m -105.45953,31.43939 c -0.11133,0.49137 -0.11752,0.99992 -0.0186,1.49335 0.099,0.49411 0.301,0.96074 0.59307,1.37102 0.29208,0.41028 0.6673,0.75389 1.10095,1.00954 0.43433,0.25496 0.91676,0.41577 1.41706,0.47144 0.91058,0.10034 1.82391,-0.15188 2.55375,-0.7051 0.72915,-0.55322 1.21915,-1.36484 1.36827,-2.26854 l 0.39379,-2.22113 c 0.26321,-1.4851 0.72228,-2.92897 1.36552,-4.29312 -2.73792,-0.23297 -5.46485,-0.50993 -8.18215,-0.83224 0.15119,1.5497 0.0529,3.11315 -0.2907,4.63193 z m -37.83681,-7.42552 c -0.15806,0.45288 -0.22403,0.93326 -0.19242,1.41226 0.0309,0.479 0.15875,0.947 0.37454,1.37583 0.21579,0.42814 0.51611,0.80887 0.8824,1.1195 0.3663,0.30994 0.791,0.54291 1.24939,0.68517 l 1.15111,0.35873 c 0.88583,0.2797 1.84589,0.20273 2.67538,-0.2151 0.82949,-0.41715 1.46311,-1.14218 1.76618,-2.02046 l 1.6686,-4.77625 c 0.17455,-0.49824 0.3766,-0.98686 0.60407,-1.46379 -3.0623,-0.72297 -6.10947,-1.50366 -9.14016,-2.3414 0.0199,1.8404 -0.27764,3.6705 -0.88034,5.40919 z m -19.30565,-24.22141 c 1.16141,-3.35987 3.11864,-6.38849 5.704,-8.82816 -6.24073,-2.30015 -12.36601,-4.88414 -18.37652,-7.75195 -3.71585,-1.77236 -7.79319,-2.65751 -11.90969,-2.58604 -4.11692,0.0715 -8.16079,1.09819 -11.81327,2.99838 3.10559,0.68998 6.09888,1.81291 8.89206,3.33581 8.88842,4.85047 18.07325,9.13604 27.49998,12.83196 z m 96.72689,26.55181 -0.09,0.007 c 0.63225,1.34903 1.08376,2.77572 1.34422,4.24227 l 0.3821,2.15377 c 0.13744,0.91608 0.62331,1.74419 1.3559,2.31116 0.73328,0.56628 1.65691,0.82811 2.5778,0.72984 0.50099,-0.055 0.98411,-0.21579 1.41844,-0.47076 0.43433,-0.25496 0.80956,-0.59926 1.10163,-1.00954 0.29207,-0.41027 0.49412,-0.87759 0.59239,-1.37171 0.099,-0.49343 0.0921,-1.00267 -0.0199,-1.49403 l -0.30375,-1.34148 c -0.33812,-1.49541 -0.43983,-3.03549 -0.29963,-4.56252 -2.67814,0.30857 -5.36452,0.57728 -8.05915,0.80613 z m 133.61121,52.98541 c -1.6198,6.48951 -4.79893,12.48559 -9.2618,17.468 -4.46287,4.98173 -10.07479,8.79929 -16.34782,11.12075 -79.66848,29.48834 -167.26003,29.48834 -246.9283,0 -6.27297,-2.32146 -11.88447,-6.13902 -16.34734,-11.12075 -4.46294,-4.98241 -7.64234,-10.97849 -9.26228,-17.468 -1.42799,-5.72944 -1.19743,-11.74682 0.66476,-17.35049 1.86225,-5.60367 5.27937,-10.56204 9.85281,-14.29782 4.57345,-3.73509 10.11465,-6.09297 15.97727,-6.79807 5.86262,-0.70579 11.80502,0.27077 17.13373,2.8142 32.93823,15.69908 68.95732,23.87024 105.44509,23.9211 36.48778,-0.0495 72.50686,-8.21858 105.4451,-23.9156 5.32809,-2.54756 11.27125,-3.52755 17.13538,-2.82383 5.86413,0.70304 11.40733,3.06024 15.98222,6.79602 4.5742,3.73509 7.99179,8.69552 9.8535,14.30056 1.86102,5.60505 2.08918,11.62381 0.65768,17.35393 z m -267.27718,3.20867 c 0,-1.08719 -0.32245,-2.15034 -0.92659,-3.05405 -0.60408,-0.90439 -1.4627,-1.6088 -2.46729,-2.02526 -1.00466,-0.41578 -2.11007,-0.52505 -3.17652,-0.31269 -1.06651,0.21235 -2.04615,0.73533 -2.81503,1.50434 -0.76887,0.76901 -1.29247,1.749 -1.50462,2.8149 -0.21215,1.06658 -0.10329,2.17233 0.31283,3.17706 0.41612,1.00404 1.1208,1.86308 2.02492,2.46715 0.90412,0.60408 1.96706,0.92639 3.05446,0.92639 1.4581,0 2.85647,-0.57933 3.88752,-1.61018 1.03105,-1.03084 1.61032,-2.42936 1.61032,-3.88766 z m 35.73574,-10.99567 c 0,-1.0872 -0.32231,-2.15034 -0.92639,-3.05405 -0.60407,-0.9044 -1.46242,-1.60881 -2.46715,-2.02527 -1.00473,-0.41577 -2.11049,-0.52504 -3.17638,-0.31269 -1.06658,0.21236 -2.04657,0.73534 -2.81558,1.50435 -0.76832,0.76901 -1.29199,1.749 -1.50434,2.81489 -0.21236,1.06658 -0.10309,2.17233 0.31268,3.17706 0.41647,1.00405 1.12088,1.86308 2.02527,2.46716 0.90371,0.60407 1.96685,0.92638 3.05405,0.92638 1.4583,0 2.85681,-0.57933 3.88766,-1.61017 1.03084,-1.03085 1.61018,-2.42936 1.61018,-3.88766 z m 36.34483,32.98702 c 0,-1.08719 -0.32231,-2.15034 -0.92639,-3.05404 -0.60407,-0.9044 -1.46242,-1.60881 -2.46715,-2.02527 -1.00473,-0.41577 -2.11048,-0.52504 -3.17638,-0.31269 -1.06658,0.21235 -2.04657,0.73534 -2.81558,1.50435 -0.76832,0.76901 -1.29199,1.749 -1.50434,2.81489 -0.21236,1.06658 -0.10309,2.17233 0.31269,3.17706 0.41646,1.00404 1.12087,1.86308 2.02526,2.46716 0.90371,0.60407 1.96685,0.92638 3.05405,0.92638 1.4583,0 2.85681,-0.57933 3.88766,-1.61018 1.03084,-1.03084 1.61018,-2.42935 1.61018,-3.88766 z m 40.89017,-16.49351 c 0,-1.0872 -0.32231,-2.15034 -0.92639,-3.05405 -0.60407,-0.90439 -1.46242,-1.6088 -2.46715,-2.02526 -1.00473,-0.41578 -2.11049,-0.52505 -3.17638,-0.31269 -1.06658,0.21235 -2.04657,0.73533 -2.81558,1.50434 -0.76832,0.76901 -1.29199,1.749 -1.50435,2.81489 -0.21235,1.06659 -0.10308,2.17234 0.31269,3.17707 0.41647,1.00404 1.12088,1.86308 2.02527,2.46715 0.90371,0.60408 1.96685,0.92639 3.05405,0.92639 0.72228,0 1.43768,-0.14157 2.1043,-0.41784 0.6673,-0.27626 1.27343,-0.68104 1.78404,-1.19165 0.5113,-0.51062 0.91608,-1.11675 1.19235,-1.78405 0.27626,-0.6673 0.41852,-1.38202 0.41852,-2.1043 z m 53.43073,5.49784 c 0,-1.0872 -0.32231,-2.15034 -0.92638,-3.05405 -0.60408,-0.90439 -1.46243,-1.60881 -2.46716,-2.02527 -1.00473,-0.41577 -2.11048,-0.52504 -3.17637,-0.31269 -1.06658,0.21236 -2.04657,0.73534 -2.81558,1.50435 -0.76833,0.76901 -1.29199,1.749 -1.50435,2.81489 -0.21235,1.06658 -0.10308,2.17234 0.31269,3.17707 0.41646,1.00404 1.12087,1.86308 2.02527,2.46715 0.9037,0.60408 1.96685,0.92639 3.05405,0.92639 0.72227,0 1.43768,-0.14157 2.10429,-0.41784 0.6673,-0.27627 1.27344,-0.68104 1.78405,-1.19166 0.51061,-0.51061 0.91608,-1.11674 1.19235,-1.78404 0.27626,-0.6673 0.41852,-1.38202 0.41852,-2.1043 z m 34.2694,9.25011 c 0,-1.0872 -0.32231,-2.15034 -0.92638,-3.05405 -0.60408,-0.90439 -1.46243,-1.6088 -2.46716,-2.02526 -1.00473,-0.41578 -2.11048,-0.52505 -3.17638,-0.31269 -1.06658,0.21235 -2.04657,0.73533 -2.81558,1.50434 -0.76832,0.76901 -1.29199,1.749 -1.50434,2.81489 -0.21236,1.06659 -0.10309,2.17234 0.31269,3.17707 0.41646,1.00404 1.12087,1.86308 2.02526,2.46715 0.90371,0.60408 1.96686,0.92639 3.05405,0.92639 1.4583,0 2.85682,-0.57934 3.88766,-1.61018 1.03085,-1.03085 1.61018,-2.42936 1.61018,-3.88766 z m 31.7026,-17.43433 c 0,-1.0872 -0.32232,-2.15034 -0.92639,-3.05405 -0.60407,-0.90439 -1.46242,-1.6088 -2.46715,-2.02527 -1.00473,-0.41577 -2.11049,-0.52504 -3.17638,-0.31268 -1.06658,0.21235 -2.04657,0.73533 -2.81558,1.50434 -0.76832,0.76901 -1.29199,1.749 -1.50435,2.81489 -0.21235,1.06658 -0.10308,2.17234 0.31269,3.17707 0.41646,1.00404 1.12087,1.86308 2.02527,2.46715 0.90371,0.60408 1.96685,0.92639 3.05405,0.92639 0.72228,0 1.437,-0.14226 2.1043,-0.41853 0.66661,-0.27626 1.27274,-0.68104 1.78336,-1.19165 0.51061,-0.51061 0.91539,-1.11675 1.19165,-1.78336 0.27627,-0.6673 0.41853,-1.38202 0.41853,-2.1043 z M 213.97,187.04728 l 0.59239,-0.0474 c 19.21151,-1.58407 38.15981,-5.49028 56.4305,-11.63412 -0.68792,-2.2548 -2.08025,-4.22921 -3.97425,-5.63322 -1.89332,-1.40401 -4.18729,-2.1634 -6.54449,-2.16683 -1.50572,-0.005 -2.99563,0.301 -4.37697,0.90096 -1.38133,0.59926 -2.62315,1.47891 -3.64712,2.5826 -0.63913,0.68311 -1.4425,1.19097 -2.33384,1.47686 -0.89065,0.28589 -1.83971,0.33949 -2.75716,0.15532 -0.91745,-0.1835 -1.77305,-0.59789 -2.48502,-1.20472 -0.71266,-0.60614 -1.25832,-1.38477 -1.58613,-2.26098 -0.79032,-2.09537 -2.19914,-3.90072 -4.03885,-5.17691 -1.83971,-1.27687 -4.02442,-1.9641 -6.2641,-1.97097 -2.89117,-0.006 -5.6669,1.13324 -7.72034,3.16882 -0.54703,0.53947 -1.20059,0.95868 -1.91943,1.22945 -0.71884,0.27146 -1.48648,0.38897 -2.25343,0.34568 -0.76695,-0.044 -1.51603,-0.24741 -2.19913,-0.59858 -0.6838,-0.35049 -1.28581,-0.84117 -1.76824,-1.43906 -2.05963,-2.56062 -4.66698,-4.62712 -7.631,-6.04693 -2.96402,-1.41982 -6.20912,-2.15722 -9.49546,-2.15722 -3.28633,0 -6.53074,0.7374 -9.49476,2.15722 -2.96402,1.41981 -5.57206,3.48631 -7.63169,6.04693 -0.48175,0.59789 -1.08445,1.08857 -1.76755,1.43975 -0.6838,0.35048 -1.43288,0.55459 -2.19983,0.59789 -0.76763,0.044 -1.53527,-0.0735 -2.25342,-0.34499 -0.71884,-0.27146 -1.37309,-0.69067 -1.92012,-1.23014 -2.05276,-2.03558 -4.82848,-3.17501 -7.71965,-3.16882 -2.239,0.007 -4.4237,0.6941 -6.26341,1.97029 -1.83972,1.27618 -3.24854,3.08154 -4.03954,5.1769 -0.32712,0.87622 -0.87347,1.65485 -1.58544,2.26098 -0.71266,0.60683 -1.56757,1.02123 -2.48502,1.20472 -0.91745,0.18418 -1.86652,0.13057 -2.75786,-0.15532 -0.89065,-0.28588 -1.69402,-0.79375 -2.33383,-1.47685 -1.02397,-1.10369 -2.26579,-1.98266 -3.64644,-2.58261 -1.38133,-0.59927 -2.87193,-0.90577 -4.37765,-0.90027 -2.32421,0.003 -4.58863,0.74221 -6.46752,2.11117 -1.87889,1.36827 -3.27671,3.29664 -3.99281,5.50814 18.4425,6.24898 37.57979,10.21705 56.98578,11.81623 9.29135,0.77176 18.62942,0.78757 27.92283,0.0461 z m 46.85807,2.91041 c -2.9812,0.81575 -5.97821,1.57513 -8.99171,2.27748 0.20548,0.43571 0.38897,0.88172 0.54978,1.33598 l 1.6686,4.77762 c 0.30375,0.87759 0.93738,1.60193 1.76686,2.01977 0.82949,0.41714 1.78886,0.49411 2.67402,0.2151 l 1.15248,-0.35873 c 0.45838,-0.14226 0.88378,-0.37523 1.24938,-0.68586 0.3663,-0.30994 0.66662,-0.69067 0.88241,-1.1195 0.21579,-0.42814 0.34361,-0.89614 0.37454,-1.37514 0.0309,-0.479 -0.0344,-0.95938 -0.19312,-1.41226 l -0.2687,-0.77039 c -0.5491,-1.57787 -0.84117,-3.23341 -0.86454,-4.90407 z m -64.95351,-58.72515 c 0,1.4583 0.57933,2.85681 1.61017,3.88766 1.03154,1.03084 2.43005,1.61018 3.88766,1.61018 1.4583,0 2.85682,-0.57934 3.88766,-1.61018 1.03085,-1.03085 1.61018,-2.42936 1.61018,-3.88766 0,-10.80394 -4.44294,-16.57942 -8.01241,-21.21959 -3.20249,-4.16393 -5.73218,-7.45232 -5.73218,-14.51636 0,-0.78413 0.0323,-1.54695 0.0955,-2.26786 0.12783,-1.4528 -0.32712,-2.895981 -1.26381,-4.013554 -0.9367,-1.117298 -2.27954,-1.816692 -3.73166,-1.94431 -1.4528,-0.12755 -2.89667,0.327121 -4.01411,1.264021 -1.11675,0.9369 -1.81635,2.278923 -1.94417,3.731723 -0.0914,1.03978 -0.13745,2.12629 -0.13745,3.22998 0,10.80394 4.44294,16.57942 8.01241,21.2196 3.20249,4.16392 5.73219,7.45231 5.73219,14.51635 z m 28.86364,5.49784 c 0,1.4583 0.57934,2.85681 1.61018,3.88766 1.03154,1.03084 2.43005,1.61017 3.88766,1.61017 1.4583,0 2.85682,-0.57933 3.88766,-1.61017 1.03085,-1.03085 1.61018,-2.42936 1.61018,-3.88766 0,-10.80394 -4.44294,-16.57942 -8.01241,-21.22028 -3.20249,-4.16324 -5.73218,-7.45163 -5.73218,-14.51567 -0.0371,-2.21219 0.28038,-4.41682 0.9415,-6.52868 0.2261,-0.68586 0.31406,-1.40951 0.25977,-2.12973 -0.0536,-0.71953 -0.24877,-1.421875 -0.57452,-2.066496 -0.32575,-0.644622 -0.77451,-1.218733 -1.32223,-1.689623 -0.54704,-0.470959 -1.18204,-0.829487 -1.86789,-1.055104 -0.68586,-0.225618 -1.40951,-0.313927 -2.12904,-0.25991 -0.72022,0.05409 -1.42256,0.249395 -2.06719,0.574867 -0.64462,0.325404 -1.21845,0.774646 -1.68921,1.321955 -0.47144,0.547379 -0.82948,1.182036 -1.05558,1.867891 -1.02947,3.21967 -1.53252,6.58504 -1.49129,9.96483 0,10.80394 4.44294,16.57942 8.01241,21.22028 3.20249,4.16324 5.73218,7.45163 5.73218,14.51567 z m -54.97837,0 c 0,1.4583 0.57933,2.85681 1.61018,3.88766 1.03153,1.03084 2.43004,1.61017 3.88765,1.61017 1.45831,0 2.85682,-0.57933 3.88766,-1.61017 1.03085,-1.03085 1.61018,-2.42936 1.61018,-3.88766 0,-10.80394 -4.44294,-16.57942 -8.01241,-21.22028 -3.20249,-4.16324 -5.73218,-7.45163 -5.73218,-14.51567 -0.0371,-2.21219 0.28039,-4.41682 0.9415,-6.52868 0.2261,-0.68586 0.31407,-1.40951 0.25977,-2.12973 -0.0536,-0.71953 -0.24877,-1.421875 -0.57452,-2.066496 -0.32575,-0.644622 -0.77451,-1.218733 -1.32223,-1.689623 -0.54703,-0.470959 -1.18203,-0.829487 -1.86789,-1.055104 -0.68586,-0.225618 -1.40951,-0.313927 -2.12904,-0.25991 -0.72021,0.05409 -1.42256,0.249395 -2.06718,0.574867 -0.64463,0.325404 -1.21846,0.774646 -1.68922,1.321955 -0.47143,0.547379 -0.82948,1.182036 -1.05558,1.867891 -1.02947,3.21967 -1.53252,6.58504 -1.49129,9.96483 0,10.80394 4.44294,16.57942 8.01241,21.22028 3.20249,4.16324 5.73219,7.45163 5.73219,14.51567 z"
     fill="url(#paint0_linear_12_55804)"
     id="path837"
     style="fill:url(#linearGradient4623);fill-opacity:1;stroke-width:0.68723" />
  <defs
     id="defs844">
    <linearGradient
       id="paint0_linear_12_55804"
       x1="54.984001"
       y1="398.422"
       x2="393.69901"
       y2="150.95799"
       gradientUnits="userSpaceOnUse">
      <stop
         stop-color="#41DFD0"
         id="stop839"
         style="stop-color:#f68b34;stop-opacity:1" />
      <stop
         offset="1"
         stop-color="#EE83EF"
         id="stop841"
         style="stop-color:#ff3285;stop-opacity:1" />
    </linearGradient>
    <linearGradient
       inkscape:collect="always"
       xlink:href="#paint0_linear_12_55804"
       id="linearGradient4623"
       gradientUnits="userSpaceOnUse"
       x1="52.393299"
       y1="270.14099"
       x2="459.43301"
       y2="270.03201"
       gradientTransform="matrix(0.68722973,0,0,0.68722973,24.06713,21.275783)" />
  </defs>
</svg>
