<?xml version="1.0" encoding="UTF-8" standalone="no"?>
<svg
   viewBox="0 0 250 264"
   version="1.1"
   id="svg8694"
   sodipodi:docname="icecream.svg"
   width="250"
   height="264"
   inkscape:version="1.1.2 (b8e25be833, 2022-02-05)"
   xmlns:inkscape="http://www.inkscape.org/namespaces/inkscape"
   xmlns:sodipodi="http://sodipodi.sourceforge.net/DTD/sodipodi-0.dtd"
   xmlns="http://www.w3.org/2000/svg"
   xmlns:svg="http://www.w3.org/2000/svg"
   xmlns:rdf="http://www.w3.org/1999/02/22-rdf-syntax-ns#"
   xmlns:cc="http://creativecommons.org/ns#"
   xmlns:dc="http://purl.org/dc/elements/1.1/">
  <defs
     id="defs8698" />
  <sodipodi:namedview
     id="namedview8696"
     pagecolor="#ffffff"
     bordercolor="#999999"
     borderopacity="1"
     inkscape:pageshadow="0"
     inkscape:pageopacity="0"
     inkscape:pagecheckerboard="0"
     showgrid="false"
     inkscape:zoom="1.1313708"
     inkscape:cx="119.76622"
     inkscape:cy="134.35029"
     inkscape:window-width="1366"
     inkscape:window-height="705"
     inkscape:window-x="-8"
     inkscape:window-y="-8"
     inkscape:window-maximized="1"
     inkscape:current-layer="Ice-cream_cone" />
  <title
     id="title8659">Ice-cream_cone</title>
  <g
     id="Ice-cream_cone"
     transform="matrix(0.63965779,0,0,0.63965779,35.81457,33.880296)">
    <path
       d="m 198.95202,148.84581 -26.78569,94.32541 -22.7925,80.24746 a 8.9572733,8.9572733 0 0 1 -17.26468,0 L 82.476152,148.81449 Z"
       style="fill:#f98638;fill-opacity:1;stroke-width:0.782978"
       id="path8661" />
    <path
       d="M 210.93159,149.19815 H 70.590542 a 17.139398,17.712782 0 0 1 -17.14723,-17.72088 v 0 a 17.147228,17.720874 0 0 1 17.14723,-17.72896 H 210.93159 a 17.147228,17.720874 0 0 1 17.14723,17.72896 v 0 a 17.139398,17.712782 0 0 1 -17.14723,17.72088 z"
       style="fill:#f98638;fill-opacity:1;stroke-width:0.795968"
       id="path8671" />
    <path
       d="m 217.18759,115.2482 a 85.250692,85.250692 0 0 0 10.60153,-41.302107 c 0,-47.675554 -38.99233,-86.331199 -87.09852,-86.331199 -48.1062,0 -87.106348,38.655645 -87.106348,86.331199 a 85.258521,85.258521 0 0 0 10.60935,41.302107 z"
       style="fill:#b72008;fill-opacity:1;stroke-width:0.782978"
       id="path8675" />
    <path
       d="M 227.82044,73.946093 A 85.258521,85.258521 0 0 1 217.21108,115.2482 h -34.31795 a 12.33974,12.33974 0 0 0 -12.33191,12.33974 v 49.74262 a 10.311826,10.311826 0 0 1 -11.05565,10.31183 10.52323,10.52323 0 0 1 -9.60715,-10.60936 v -40.26858 a 6.1228913,6.1228913 0 0 0 -6.55353,-6.09157 6.2638275,6.2638275 0 0 0 -5.66093,6.3343 v 4.50212 a 8.1586353,8.1586353 0 0 1 -4.60391,7.33651 8.1116566,8.1116566 0 0 1 -7.08596,0 8.1508055,8.1508055 0 0 1 -4.59608,-7.33651 V 62.726013 a 11.290549,11.290549 0 0 0 -11.8543,-11.27489 11.501953,11.501953 0 0 0 -10.73463,11.59591 v 18.4548 a 12.073527,12.073527 0 0 1 -12.652928,12.0657 12.300591,12.300591 0 0 1 -11.50978,-12.40238 V 58.137763 A 15.23676,15.23676 0 0 0 59.425262,42.92449 87.106351,87.106351 0 0 1 140.71409,-12.385106 c 48.10619,0 87.10635,38.655645 87.10635,86.331199 z"
       style="fill:#b72008;fill-opacity:1;stroke-width:0.782978"
       id="path8677" />
    <path
       d="m 193.72173,115.2482 a 85.258521,85.258521 0 0 0 10.60935,-41.302107 c 0,-43.737173 -32.82245,-79.8637976 -75.38516,-85.548221 a 88.327797,88.327797 0 0 1 11.74468,-0.782978 c 48.10619,0 87.10635,38.655645 87.10635,86.331199 A 85.258521,85.258521 0 0 1 217.18759,115.2482 H 195.1859"
       style="fill:#b72008;fill-opacity:1;stroke-width:0.782978"
       id="path8679" />
    <path
       d="m 152.32566,61.606353 v 0 a 4.6978706,4.6978706 0 0 1 -1.50332,-6.47523 l 4.048,-6.475231 a 4.6978706,4.6978706 0 0 1 6.47523,-1.503318 v 0 a 4.6978706,4.6978706 0 0 1 1.49549,6.475229 l -4.048,6.52221 a 4.6978706,4.6978706 0 0 1 -6.4674,1.45634 z"
       style="fill:#edc50f;fill-opacity:1;stroke-width:0.782978"
       id="path8681" />
    <path
       d="m 80.124322,97.394133 v 0 a 4.6978706,4.6978706 0 0 1 -1.50332,-6.47523 l 4.048,-6.47524 a 4.6978706,4.6978706 0 0 1 6.47523,-1.50331 v 0 a 4.6978706,4.6978706 0 0 1 1.49549,6.47523 l -4.048,6.52221 a 4.6978706,4.6978706 0 0 1 -6.4674,1.45634 z"
       style="fill:#edc50f;fill-opacity:1;stroke-width:0.782978"
       id="path8681-4"
       inkscape:transform-center-x="-15.90425"
       inkscape:transform-center-y="-3.6702101" />
    <path
       d="m 108.37708,20.836668 v 0 a 4.6978706,4.6978706 0 0 1 2.52119,-6.14638 l 7.0468,-2.951829 a 4.6978706,4.6978706 0 0 1 6.14638,2.513361 v 0 a 4.6978706,4.6978706 0 0 1 -2.51336,6.15421 l -7.0468,2.951829 a 4.6978706,4.6978706 0 0 1 -6.15421,-2.521191 z"
       style="fill:#edc50f;fill-opacity:1;stroke-width:0.782978"
       id="path8683" />
    <path
       d="m 113.87654,75.481463 v 0 a 4.6978706,4.6978706 0 0 1 2.5212,-6.14638 l 7.0468,-2.95183 a 4.6978706,4.6978706 0 0 1 6.14638,2.51336 v 0 a 4.6978706,4.6978706 0 0 1 -2.51336,6.15421 l -7.0468,2.95183 a 4.6978706,4.6978706 0 0 1 -6.15422,-2.52119 z"
       style="fill:#edc50f;fill-opacity:1;stroke-width:0.782978"
       id="path8683-8" />
    <path
       d="m 178.95475,26.834283 -6.50655,-4.008849 a 4.6978706,4.6978706 0 0 1 -1.56596,-6.459572 v 0 a 4.6978706,4.6978706 0 0 1 6.46741,-1.565957 l 6.50655,4.008849 a 4.6978706,4.6978706 0 0 1 1.56595,6.459572 v 0 a 4.6978706,4.6978706 0 0 1 -6.4674,1.565957 z"
       style="fill:#edc50f;fill-opacity:1;stroke-width:0.782978"
       id="path8685" />
    <path
       d="m 149.60872,106.25178 -6.26383,-4.3377 a 4.6978706,4.6978706 0 0 1 -1.20578,-6.537867 v 0 a 4.6978706,4.6978706 0 0 1 6.53787,-1.19795 l 6.26382,4.3377 a 4.6978706,4.6978706 0 0 1 1.20579,6.530037 v 0 a 4.6978706,4.6978706 0 0 1 -6.53787,1.20578 z"
       style="fill:#edc50f;fill-opacity:1;stroke-width:0.782978"
       id="path8687" />
    <path
       d="m 90.836922,51.072993 -6.26383,-4.3377 a 4.6978706,4.6978706 0 0 1 -1.20579,-6.53787 v 0 a 4.6978706,4.6978706 0 0 1 6.53787,-1.197957 L 96.169,43.337167 a 4.6978706,4.6978706 0 0 1 1.20579,6.53004 v 0 a 4.6978706,4.6978706 0 0 1 -6.537868,1.205786 z"
       style="fill:#edc50f;fill-opacity:1;stroke-width:0.782978"
       id="path8687-0" />
    <path
       d="m 194.68479,90.537413 v 0 a 4.6978706,4.6978706 0 0 1 0.47762,-6.624 l 5.78621,-4.9954 a 4.6978706,4.6978706 0 0 1 6.62399,0.48544 v 0 a 4.6978706,4.6978706 0 0 1 -0.48544,6.624 l -5.77838,4.9954 a 4.6978706,4.6978706 0 0 1 -6.624,-0.48544 z"
       style="fill:#edc50f;fill-opacity:1;stroke-width:0.782978"
       id="path8689" />
  </g>
  <metadata
     id="metadata8780">
    <rdf:RDF>
      <cc:Work
         rdf:about="">
        <dc:title>Ice-cream_cone</dc:title>
      </cc:Work>
    </rdf:RDF>
  </metadata>
</svg>
