<?xml version="1.0" encoding="UTF-8" standalone="no"?>
<!-- Generator: Adobe Illustrator 18.0.0, SVG Export Plug-In . SVG Version: 6.00 Build 0)  -->

<svg
   version="1.1"
   id="Capa_1"
   x="0px"
   y="0px"
   viewBox="0 0 250 264"
   xml:space="preserve"
   sodipodi:docname="milkshake.svg"
   width="250"
   height="264"
   inkscape:version="1.1.2 (b8e25be833, 2022-02-05)"
   xmlns:inkscape="http://www.inkscape.org/namespaces/inkscape"
   xmlns:sodipodi="http://sodipodi.sourceforge.net/DTD/sodipodi-0.dtd"
   xmlns="http://www.w3.org/2000/svg"
   xmlns:svg="http://www.w3.org/2000/svg"><defs
   id="defs16658"><inkscape:path-effect
     effect="fill_between_many"
     method="originald"
     linkedpaths="#path17390,0,1"
     id="path-effect21193"
     is_visible="true"
     lpeversion="0"
     join="true"
     close="true"
     autoreverse="true"
     applied="false" /><inkscape:path-effect
     effect="fill_between_many"
     method="originald"
     linkedpaths="#path17390,0,1"
     id="path-effect8649"
     is_visible="true"
     lpeversion="0"
     join="true"
     close="true"
     autoreverse="true"
     applied="false" /></defs><sodipodi:namedview
   id="namedview16656"
   pagecolor="#ffffff"
   bordercolor="#999999"
   borderopacity="1"
   inkscape:pageshadow="0"
   inkscape:pageopacity="0"
   inkscape:pagecheckerboard="0"
   showgrid="false"
   inkscape:zoom="1.4142136"
   inkscape:cx="172.8876"
   inkscape:cy="102.53048"
   inkscape:window-width="1366"
   inkscape:window-height="705"
   inkscape:window-x="-8"
   inkscape:window-y="-8"
   inkscape:window-maximized="1"
   inkscape:current-layer="Capa_1"
   inkscape:object-paths="true"
   inkscape:snap-intersection-paths="true"
   inkscape:snap-smooth-nodes="true"
   inkscape:snap-midpoints="true"
   inkscape:snap-nodes="true"
   inkscape:snap-bbox="true"
   inkscape:snap-bbox-edge-midpoints="true"
   inkscape:bbox-nodes="true"
   inkscape:bbox-paths="true"
   inkscape:snap-bbox-midpoints="false"
   inkscape:snap-global="true" />

<g
   id="g11462"
   transform="matrix(0.67866316,0,0,0.67866316,-130.98122,-13.679752)"><path
     style="fill:#800000;stroke:#000000;stroke-width:0;stroke-linecap:butt;stroke-linejoin:miter;stroke-miterlimit:4;stroke-dasharray:none;stroke-opacity:1"
     d="m 364.9928,154.03588 h 10.86921 l 10.51552,-90.664068 -10.94306,0.64063 z"
     id="path7165"
     sodipodi:nodetypes="ccccc" /><path
     id="path7438"
     style="fill:#800000;fill-opacity:1;fill-rule:evenodd;stroke:#ff397f;stroke-width:0;stroke-miterlimit:4;stroke-dasharray:none"
     d="m 377.12909,49.410875 -1.82453,15.721567 10.87236,-0.0309 1.81944,-15.684768 v -0.0059 z"
     sodipodi:nodetypes="cccccc" /></g><g
   id="g16625">
</g>
<g
   id="g16627">
</g>
<g
   id="g16629">
</g>
<g
   id="g16631">
</g>
<g
   id="g16633">
</g>
<g
   id="g16635">
</g>
<g
   id="g16637">
</g>
<g
   id="g16639">
</g>
<g
   id="g16641">
</g>
<g
   id="g16643">
</g>
<g
   id="g16645">
</g>
<g
   id="g16647">
</g>
<g
   id="g16649">
</g>
<g
   id="g16651">
</g>
<g
   id="g16653">
</g>
<style
   type="text/css"
   id="style17388">
	.st0{fill:#80B38F;}
</style><path
   id="path8651"
   style="opacity:0.5;fill:#ff457a;fill-opacity:1;stroke-width:0.678663"
   inkscape:path-effect="#path-effect8649"
   inkscape:original-d="M -232.42992,127.63273"
   d="m 113.19364,42.526712 c -0.63796,-0.01771 -1.27978,0.03502 -1.91405,0.161719 -13.16482,2.624648 -25.13634,9.247932 -33.71047,18.649976 -7.807948,8.561836 -12.496408,19.129314 -13.447322,30.127618 h -7.33009 v 5.026341 2.33688 l 0.21208,4.220444 8.466054,-0.12725 21.897428,133.35725 75.95293,0.20172 20.57372,-133.54122 8.0879,-0.0275 -0.13616,-4.083464 v -2.33688 -5.026341 h -6.95762 c -0.94553,-10.928711 -5.584,-21.440049 -13.30418,-29.971204 -8.4805,-9.371564 -20.34126,-16.019077 -33.39898,-18.717577 -2.52442,-0.522021 -5.172,0.123048 -7.26647,1.76956 -0.56692,0.445759 -1.24985,0.923348 -1.99888,1.346719 -3.21226,1.243243 -7.41614,0.450177 -7.50373,0.433441 -1.18782,-0.553734 -2.20272,-1.272344 -2.86179,-1.801368 -1.56426,-1.255317 -3.44647,-1.945694 -5.36037,-1.998881 z" /><path
   id="path17390"
   style="opacity:1;fill:#ff457a;fill-opacity:1;stroke-width:0.408596"
   class="st0"
   d="m 113.19364,42.526712 c -0.63796,-0.01771 -1.27978,0.03502 -1.91405,0.161719 -13.16482,2.624648 -25.13634,9.247932 -33.71047,18.649976 -7.807948,8.561836 -12.496408,19.129314 -13.447322,30.127618 h -7.33009 v 5.026341 2.33688 l 0.21208,4.220444 8.466054,-0.12725 21.897428,133.35725 75.95293,0.20172 20.57372,-133.54122 8.0879,-0.0275 -0.13616,-4.083464 v -2.33688 -5.026341 h -6.95762 c -0.94553,-10.928711 -5.584,-21.440049 -13.30418,-29.971204 -8.4805,-9.371564 -20.34126,-16.019077 -33.39898,-18.717577 -2.52442,-0.522021 -5.172,0.123048 -7.26647,1.76956 -0.56692,0.445759 -1.24985,0.923348 -1.99888,1.346719 -3.21226,1.243243 -7.41614,0.450177 -7.50373,0.433441 -1.18782,-0.553734 -2.20272,-1.272344 -2.86179,-1.801368 -1.56426,-1.255317 -3.44647,-1.945694 -5.36037,-1.998881 z m -0.48779,7.384439 c 0.41552,-0.08295 0.88188,0.05212 1.27779,0.369824 1.61587,1.29662 3.87136,2.753737 6.54539,3.577559 v 0.0041 c 0.0111,0.0034 0.0232,0.0061 0.0345,0.0093 0.008,0.0027 0.0147,0.0054 0.0225,0.0079 v -0.0027 c 2.42845,0.663094 7.04927,0.278883 7.34733,0.253175 l -10e-4,0.0093 c 0.0129,-0.0027 0.0242,-0.0088 0.0371,-0.01195 0.001,-1.15e-4 0.0199,-0.0014 0.0199,-0.0014 v -0.0054 c 3.045,-0.732122 5.63478,-2.352145 7.44275,-3.773741 0.39734,-0.312545 0.86404,-0.443418 1.27781,-0.357886 11.54989,2.386906 22.00923,8.233473 29.45424,16.460227 6.58635,7.278656 10.47238,15.855974 11.37556,25.016426 h -51.87399 -2.0625 -7.37648 -4.13428 -40.621688 c 0.90856,-9.220751 4.835658,-17.8454 11.498818,-25.151629 7.52846,-8.255549 18.08964,-14.081133 29.73658,-16.403233 z M 73.027922,107.44642 h 39.149048 2.19505 7.37649 2.55956 51.30004 l -4.19392,27.46464 H 118.5633 111.18681 77.22185 Z m 40.482508,49.18585 13.31744,4.65785 -4.63267,13.38505 -13.32008,-4.65786 z m 25.54929,13.81185 20.85696,7.29298 -7.25719,20.96168 -20.85696,-7.29298 z m -26.22927,19.94766 14.23867,16.96526 -16.88175,14.31024 -14.23735,-16.96658 z"
   sodipodi:nodetypes="cccccccccccccccccccccccsccccccccccccccccccccccccccccccccccccccccccccccccccc" /><path
   style="fill:#efca0f;fill-opacity:1;stroke:#000000;stroke-width:0;stroke-linecap:butt;stroke-linejoin:miter;stroke-miterlimit:4;stroke-dasharray:none;stroke-opacity:1"
   d="M 77.1987,134.3043 H 69.748902 L 85.79153,238.85359 h 77.48072 L 179.3266,134.22695 H 77.18683"
   id="path18010" /><path
   style="fill:#efca0f;fill-opacity:1;stroke:#000000;stroke-width:0;stroke-linecap:butt;stroke-linejoin:miter;stroke-miterlimit:4;stroke-dasharray:none;stroke-opacity:1"
   d="m 69.748902,134.3043 -4.76528,-31.05509 H 56.665477 V 90.858725 h 121.354213 7.38638 6.99203 v 12.390485 h -8.31814 l -4.99269,32.53747 -109.297168,-1.21389"
   id="path19150"
   sodipodi:nodetypes="ccccccccccc" /><circle
   style="fill:#ffffff;fill-opacity:1;fill-rule:evenodd;stroke:none;stroke-width:0;stroke-miterlimit:4;stroke-dasharray:none"
   id="path22712"
   cx="124.53179"
   cy="170.92569"
   r="27.743486" /></svg>
