<?xml version="1.0" encoding="UTF-8" standalone="no"?>
<!-- Generator: Adobe Illustrator 18.0.0, SVG Export Plug-In . SVG Version: 6.00 Build 0)  -->

<svg
   version="1.1"
   id="Capa_1"
   x="0px"
   y="0px"
   viewBox="0 0 400 400"
   xml:space="preserve"
   sodipodi:docname="pizza.svg"
   width="400"
   height="400"
   inkscape:version="1.1.2 (b8e25be833, 2022-02-05)"
   xmlns:inkscape="http://www.inkscape.org/namespaces/inkscape"
   xmlns:sodipodi="http://sodipodi.sourceforge.net/DTD/sodipodi-0.dtd"
   xmlns="http://www.w3.org/2000/svg"
   xmlns:svg="http://www.w3.org/2000/svg"><defs
   id="defs16658"><inkscape:path-effect
     effect="fill_between_many"
     method="originald"
     linkedpaths="#path17390,0,1"
     id="path-effect21193" /></defs><sodipodi:namedview
   id="namedview16656"
   pagecolor="#ffffff"
   bordercolor="#999999"
   borderopacity="1"
   inkscape:pageshadow="0"
   inkscape:pageopacity="0"
   inkscape:pagecheckerboard="0"
   showgrid="false"
   inkscape:zoom="1.1313708"
   inkscape:cx="229.36776"
   inkscape:cy="153.79572"
   inkscape:window-width="1366"
   inkscape:window-height="705"
   inkscape:window-x="-8"
   inkscape:window-y="-8"
   inkscape:window-maximized="1"
   inkscape:current-layer="g33840"
   inkscape:object-paths="true"
   inkscape:snap-intersection-paths="true"
   inkscape:snap-smooth-nodes="true"
   inkscape:snap-midpoints="true" />

<g
   id="g16625">
</g>
<g
   id="g16627">
</g>
<g
   id="g16629">
</g>
<g
   id="g16631">
</g>
<g
   id="g16633">
</g>
<g
   id="g16635">
</g>
<g
   id="g16637">
</g>
<g
   id="g16639">
</g>
<g
   id="g16641">
</g>
<g
   id="g16643">
</g>
<g
   id="g16645">
</g>
<g
   id="g16647">
</g>
<g
   id="g16649">
</g>
<g
   id="g16651">
</g>
<g
   id="g16653">
</g>
<style
   type="text/css"
   id="style17388">
	.st0{fill:#80B38F;}
</style><g
   style="overflow:hidden;fill:currentColor"
   id="g33840"
   transform="matrix(0.27893753,0,0,0.27893753,51.476996,50.465493)"><path
     d="m 766.69868,259.00337 a 105.13067,105.13067 0 0 1 -161.58993,53.46104 58.197333,58.197333 0 0 1 -109.215,-21.36027 L 141.69924,399.59506 a 546.13333,546.13333 0 0 0 546.075,546.07503 L 929.73675,158.71866 770.31906,207.59388 a 104.96,104.96 0 0 1 -3.62038,51.40949 z"
     fill="#fbb040"
     id="path33789"
     style="fill:#edc80f;fill-opacity:1" /><path
     d="m 941.80471,146.6507 a 17.066667,17.066667 0 0 1 4.22378,17.01582 L 704.18666,950.73859 a 17.066667,17.066667 0 0 1 -16.41242,12.068 A 563.2,563.2 0 0 1 124.56275,399.59506 17.066667,17.066667 0 0 1 136.6307,383.18264 L 490.70453,274.81239 a 17.066667,17.066667 0 0 1 21.96367,14.48155 41.130667,41.130667 0 0 0 77.83832,15.56767 17.066667,17.066667 0 0 1 24.98067,-5.9133 88.064,88.064 0 0 0 135.40246,-44.65144 88.576,88.576 0 0 0 2.65495,-43.44464 17.066667,17.066667 0 0 1 11.8266,-19.55009 l 159.41769,-48.87522 a 17.066667,17.066667 0 0 1 17.01582,4.22378 z M 675.22357,928.53356 904.03201,184.4234 789.14507,219.66184 a 122.70933,122.70933 0 0 1 -5.55126,44.89279 122.19733,122.19733 0 0 1 -173.17517,71.08026 75.264,75.264 0 0 1 -125.98945,-22.68776 l -324.7487,99.56064 A 529.06667,529.06667 0 0 0 676.06833,928.8956 Z"
     fill="#be1e2d"
     id="path33791"
     style="fill:#fc7a02;fill-opacity:1" /><path
     d="m 766.69868,259.00337 a 105.13067,105.13067 0 0 1 -161.58993,53.46104 58.197333,58.197333 0 0 1 -109.215,-21.36027 L 203.84922,380.64836 A 546.13333,546.13333 0 0 0 706.96229,883.76144 L 929.73675,158.71866 770.31906,207.59388 a 104.96,104.96 0 0 1 -3.62038,51.40949 z"
     fill="#fbb040"
     id="path33793"
     style="fill:#edc80f;fill-opacity:1" /><path
     d="m 941.80471,146.6507 a 17.066667,17.066667 0 0 1 4.22378,17.01582 L 723.25403,888.7093 a 17.066667,17.066667 0 0 1 -17.25718,11.70592 563.2,563.2 0 0 1 -518.9221,-518.9221 17.066667,17.066667 0 0 1 12.06796,-17.61921 l 291.56182,-89.06152 a 17.066667,17.066667 0 0 1 14.36087,2.05156 17.066667,17.066667 0 0 1 7.6028,12.42999 41.130667,41.130667 0 0 0 77.83832,15.56767 17.066667,17.066667 0 0 1 24.98067,-5.9133 88.064,88.064 0 0 0 135.40246,-44.65144 88.576,88.576 0 0 0 2.65495,-43.44464 17.066667,17.066667 0 0 1 11.8266,-19.55009 l 159.41769,-48.87522 a 17.066667,17.066667 0 0 1 17.01582,4.22378 z M 694.89434,865.17679 904.03201,184.4234 789.14507,219.66184 a 122.70933,122.70933 0 0 1 -5.55126,44.89279 122.19733,122.19733 0 0 1 -173.17517,71.08026 75.264,75.264 0 0 1 -125.98945,-22.68776 l -262.116,79.64851 a 529.06667,529.06667 0 0 0 472.58115,472.58115 z"
     fill="#be1e2d"
     id="path33795"
     style="fill:#fc7a02;fill-opacity:1" /><path
     d="m 595.21302,737.49782 m 12.06796,12.06796 a 17.066673,17.066673 0 1 0 -24.13592,-24.13592 17.066673,17.066673 0 1 0 24.13592,24.13592 z"
     fill="#f2d09f"
     id="path33797" /><path
     d="m 619.34894,713.3619 a 34.133333,34.133333 0 1 1 -48.27183,10e-6 34.133333,34.133333 0 0 1 48.27183,-10e-6 z m -24.13592,24.13592 z"
     fill="#be1e2d"
     id="path33799"
     style="fill:#e4298b;fill-opacity:1" /><path
     d="m 474.53346,616.81826 m 12.06796,12.06796 a 17.066667,17.066667 0 1 0 -24.13591,-24.13591 17.066667,17.066667 0 1 0 24.13591,24.13591 z"
     fill="#f2d09f"
     id="path33801" /><path
     d="m 498.66938,592.68234 a 34.133333,34.133333 0 1 1 -48.27183,1e-5 34.133333,34.133333 0 0 1 48.27183,-1e-5 z m -24.13592,24.13592 z"
     fill="#be1e2d"
     id="path33803"
     style="fill:#e4298b;fill-opacity:1" /><path
     d="m 353.85391,496.13871 m 12.06795,12.06795 a 17.066667,17.066667 0 1 0 -24.13591,-24.13591 17.066667,17.066667 0 1 0 24.13591,24.13591 z"
     fill="#f2d09f"
     id="path33805" /><path
     d="m 377.98982,472.00279 a 34.133333,34.133333 0 1 1 -48.27183,0 34.133333,34.133333 0 0 1 48.27183,0 z m -24.13591,24.13592 z"
     fill="#be1e2d"
     id="path33807"
     style="fill:#e4298b;fill-opacity:1" /><path
     d="m 498.66938,472.00279 m 12.06795,12.06796 a 17.06667,17.06667 0 1 0 -24.13591,-24.13592 17.06667,17.06667 0 1 0 24.13591,24.13592 z"
     fill="#f2d09f"
     id="path33809" /><path
     d="m 522.80529,447.86688 a 34.133333,34.133333 0 1 1 -48.27182,0 34.133333,34.133333 0 0 1 48.27182,0 z m -24.13591,24.13591 z"
     fill="#be1e2d"
     id="path33811"
     style="fill:#e4298b;fill-opacity:1" /><path
     d="m 619.34894,592.68235 m 12.06795,12.06795 a 17.066667,17.066667 0 1 0 -24.13591,-24.13591 17.066667,17.066667 0 1 0 24.13591,24.13591 z"
     fill="#f2d09f"
     id="path33813" /><path
     d="m 643.48484,568.54644 a 34.133333,34.133333 0 1 1 -48.27182,-10e-6 34.133333,34.133333 0 0 1 48.27182,10e-6 z m -24.1359,24.13591 z"
     fill="#be1e2d"
     id="path33815"
     style="fill:#e4298b;fill-opacity:1" /><path
     d="m 819.79768,324.41169 a 17.066667,17.066667 0 0 1 3.74107,18.46398 l -59.49503,147.59109 a 17.368635,17.368635 0 0 1 -32.10076,-13.27475 l 59.49502,-147.5911 a 17.066667,17.066667 0 0 1 27.87698,-5.67194 z"
     fill="#ffffff"
     id="path33817"
     style="fill:#fc7a02;fill-opacity:1" /></g></svg>
