<svg id="visual" viewBox="0 0 900 600" width="900" height="600" xmlns="http://www.w3.org/2000/svg" xmlns:xlink="http://www.w3.org/1999/xlink" version="1.1"><path d="M0 483L21.5 481C43 479 86 475 128.8 466.5C171.7 458 214.3 445 257.2 450C300 455 343 478 385.8 463.8C428.7 449.7 471.3 398.3 514.2 386.5C557 374.7 600 402.3 642.8 419.5C685.7 436.7 728.3 443.3 771.2 430C814 416.7 857 383.3 878.5 366.7L900 350L900 601L878.5 601C857 601 814 601 771.2 601C728.3 601 685.7 601 642.8 601C600 601 557 601 514.2 601C471.3 601 428.7 601 385.8 601C343 601 300 601 257.2 601C214.3 601 171.7 601 128.8 601C86 601 43 601 21.5 601L0 601Z" fill="#0fb2cf" stroke-linecap="round" stroke-linejoin="miter"></path></svg>