<svg id="visual" viewBox="0 0 900 600" width="900" height="600" xmlns="http://www.w3.org/2000/svg" xmlns:xlink="http://www.w3.org/1999/xlink" version="1.1"><path d="M0 521L16.7 520.2C33.3 519.3 66.7 517.7 100 496.5C133.3 475.3 166.7 434.7 200 434.5C233.3 434.3 266.7 474.7 300 480.2C333.3 485.7 366.7 456.3 400 442.3C433.3 428.3 466.7 429.7 500 441.2C533.3 452.7 566.7 474.3 600 475.7C633.3 477 666.7 458 700 441.2C733.3 424.3 766.7 409.7 800 399C833.3 388.3 866.7 381.7 883.3 378.3L900 375L900 601L883.3 601C866.7 601 833.3 601 800 601C766.7 601 733.3 601 700 601C666.7 601 633.3 601 600 601C566.7 601 533.3 601 500 601C466.7 601 433.3 601 400 601C366.7 601 333.3 601 300 601C266.7 601 233.3 601 200 601C166.7 601 133.3 601 100 601C66.7 601 33.3 601 16.7 601L0 601Z" fill="#dc5e33" stroke-linecap="round" stroke-linejoin="miter"></path></svg>